<?xml version="1.0" encoding="UTF-8" standalone="no"?>
<svg
   xmlns:dc="http://purl.org/dc/elements/1.1/"
   xmlns:cc="http://creativecommons.org/ns#"
   xmlns:rdf="http://www.w3.org/1999/02/22-rdf-syntax-ns#"
   xmlns:svg="http://www.w3.org/2000/svg"
   xmlns="http://www.w3.org/2000/svg"
   xmlns:sodipodi="http://sodipodi.sourceforge.net/DTD/sodipodi-0.dtd"
   xmlns:inkscape="http://www.inkscape.org/namespaces/inkscape"
   width="98.751823mm"
   height="97.970551mm"
   viewBox="0 0 98.751823 97.970547"
   version="1.1"
   id="svg875"
   inkscape:version="1.0.1 (3bc2e813f5, 2020-09-07)"
   sodipodi:docname="cute-bone-pattern-yellow-background.svg">
  <defs
     id="defs869">
    <clipPath
       clipPathUnits="userSpaceOnUse"
       id="clipPath1452">
      <rect
         style="fill:#669933;fill-opacity:1;fill-rule:evenodd;stroke:#669933;stroke-width:0.193839;stroke-opacity:1"
         id="rect1454"
         width="98.751823"
         height="97.970551"
         x="78.975258"
         y="105.91338" />
    </clipPath>
    <clipPath
       clipPathUnits="userSpaceOnUse"
       id="clipPath1456">
      <rect
         style="fill:#669933;fill-opacity:1;fill-rule:evenodd;stroke:#669933;stroke-width:0.193839;stroke-opacity:1"
         id="rect1458"
         width="98.751823"
         height="97.970551"
         x="78.975258"
         y="105.91338" />
    </clipPath>
  </defs>
  <sodipodi:namedview
     id="base"
     pagecolor="#ffffff"
     bordercolor="#666666"
     borderopacity="1.0"
     inkscape:pageopacity="0.0"
     inkscape:pageshadow="2"
     inkscape:zoom="2.0457597"
     inkscape:cx="189.96744"
     inkscape:cy="219.33919"
     inkscape:document-units="mm"
     inkscape:current-layer="layer1"
     inkscape:document-rotation="0"
     showgrid="false"
     inkscape:window-width="1680"
     inkscape:window-height="987"
     inkscape:window-x="-8"
     inkscape:window-y="-8"
     inkscape:window-maximized="1" />
  <metadata
     id="metadata872">
    <rdf:RDF>
      <cc:Work
         rdf:about="">
        <dc:format>image/svg+xml</dc:format>
        <dc:type
           rdf:resource="http://purl.org/dc/dcmitype/StillImage" />
        <dc:title></dc:title>
      </cc:Work>
    </rdf:RDF>
  </metadata>
  <g
     inkscape:label="Слой 1"
     inkscape:groupmode="layer"
     id="layer1"
     transform="translate(-78.975258,-105.91338)">
    <path
       style="fill:#669933;fill-opacity:0;fill-rule:evenodd;stroke:#669933;stroke-width:0.142857;stroke-opacity:1"
       d="m 77.012648,154.21428 v -50.7433 h 50.743302 50.74331 v 50.7433 50.7433 H 127.75595 77.012648 Z m 70.994072,47.98517 c 0.30225,-0.46127 0.30226,-0.52551 1.8e-4,-1.08667 -0.31241,-0.58052 -0.3043,-0.64931 0.30386,-2.5808 0.53134,-1.68743 0.7033,-2.02205 1.14922,-2.23628 0.76474,-0.36737 1.01481,-1.02605 0.61894,-1.63023 -0.18993,-0.29001 -0.49142,-0.48019 -0.76107,-0.48019 -0.24559,0 -0.67944,-0.12086 -0.96411,-0.26855 -0.56531,-0.29327 -1.0022,-0.21776 -1.36824,0.23656 -0.31677,0.39314 -0.29836,0.973 0.0429,1.35006 0.24804,0.27408 0.20303,0.53864 -0.40447,2.37723 -0.60609,1.83436 -0.75018,2.10095 -1.27129,2.3523 -1.02337,0.49361 -0.76586,2.07368 0.33925,2.08177 0.21776,0.003 0.5235,0.0853 0.67943,0.18608 0.54559,0.35259 1.2978,0.21403 1.63543,-0.30128 z m -50.447742,-0.31292 c 0.19362,-0.23386 0.51048,-0.51435 0.70413,-0.62328 0.95673,-0.53816 0.62524,-1.84433 -0.49194,-1.93818 -0.58597,-0.0492 -0.88693,-0.28154 -2.12045,-1.63658 -1.28193,-1.40822 -1.42534,-1.64026 -1.32466,-2.14355 0.12874,-0.6437 -0.4213,-1.35966 -1.04452,-1.35966 -0.58989,0 -2.09479,1.52685 -2.09479,2.12537 0,0.58489 0.66014,1.12204 1.28183,1.04304 0.28734,-0.0365 0.78483,0.38613 1.83189,1.55628 1.16872,1.30609 1.41674,1.68963 1.32662,2.05163 -0.28112,1.12911 1.18264,1.82991 1.93189,0.92493 z m 11.236032,-1.02148 c 0.41415,-0.37478 0.45019,-1.14831 0.0729,-1.56519 -0.23884,-0.2639 -0.20804,-0.55907 0.24799,-2.37723 0.42641,-1.70008 0.60016,-2.11558 0.95967,-2.29505 0.5384,-0.26876 0.75925,-0.59798 0.76303,-1.13752 0.004,-0.54414 -0.47923,-1.00568 -1.05261,-1.00568 -0.25384,0 -0.61762,-0.0975 -0.80841,-0.21664 -0.49795,-0.31097 -1.32472,-0.0432 -1.57713,0.5108 -0.17899,0.39285 -0.15282,0.55647 0.15491,0.96867 l 0.37031,0.49598 -0.54493,2.09714 c -0.29972,1.15346 -0.6381,2.13099 -0.75197,2.17234 -0.11385,0.0413 -0.40849,0.27662 -0.65471,0.52287 -0.72975,0.72975 -0.18812,1.76432 0.92366,1.76432 0.28582,0 0.57224,0.085 0.63648,0.18897 0.18047,0.29202 0.87691,0.22365 1.26079,-0.12378 z m 13.00783,-0.0652 c 0.4396,-0.43963 0.4946,-1.17986 0.11127,-1.49796 -0.22609,-0.18767 -0.15973,-0.54079 0.43615,-2.32064 0.57544,-1.71886 0.78546,-2.12989 1.15902,-2.26809 0.56743,-0.20989 0.74381,-0.47834 0.7475,-1.13776 0.003,-0.54729 -0.72236,-1.19576 -1.17054,-1.04637 -0.13234,0.0441 -0.35375,-0.0329 -0.49201,-0.17121 -0.89208,-0.89207 -2.21174,0.50437 -1.52136,1.60985 0.17208,0.27554 0.0754,0.76327 -0.48422,2.44269 -0.57875,1.73686 -0.76937,2.10854 -1.10637,2.15725 -0.22392,0.0324 -0.53251,0.28295 -0.6857,0.55679 -0.24961,0.4462 -0.24489,0.54933 0.0453,0.99219 0.22403,0.34195 0.49007,0.49427 0.86331,0.49427 0.29671,0 0.64532,0.12755 0.77473,0.28347 0.32634,0.3932 0.87437,0.35407 1.32292,-0.0945 z m 15.5004,-0.94676 c 0.46784,-0.2504 1.35832,-2.03509 1.225,-2.45517 -0.0572,-0.1804 -0.27511,-0.48273 -0.48411,-0.67189 -0.33599,-0.30408 -0.4578,-0.31575 -1.05197,-0.10091 -0.6382,0.23077 -0.77076,0.19778 -2.63898,-0.65685 -1.63349,-0.74726 -1.96701,-0.97081 -1.96701,-1.31829 0,-0.52483 -0.42646,-0.88995 -1.03945,-0.88995 -0.61593,0 -1.03941,0.36576 -1.03941,0.8977 0,0.2344 -0.12759,0.53205 -0.28351,0.66146 -0.61896,0.51369 -0.11409,1.88987 0.69331,1.88987 0.1932,0 0.50497,-0.096 0.69283,-0.21331 0.48397,-0.30223 4.37801,1.42812 4.37801,1.94543 0,0.37584 0.63106,1.1027 0.95736,1.1027 0.11078,0 0.36185,-0.0858 0.55793,-0.19079 z m 31.7159,-0.35319 c 0.38811,-0.24601 0.19395,-1.05259 -0.2693,-1.11879 -0.56748,-0.0811 -0.91683,0.39878 -0.6514,0.89474 0.22203,0.41487 0.50936,0.48477 0.9207,0.22405 z m -11.21577,-0.54441 c 0.22006,-0.50165 0.19485,-0.49323 2.70727,-0.90106 1.84055,-0.29877 1.96297,-0.29821 2.18809,0.01 0.57806,0.79052 2.20324,-0.0106 1.90412,-0.93868 -0.0689,-0.21386 -0.18087,-0.72658 -0.24875,-1.13941 -0.20055,-1.21934 -1.53581,-1.55102 -2.01333,-0.50002 -0.20898,0.45993 -0.21184,0.46087 -2.70131,0.877 -1.71123,0.28604 -1.76895,0.28369 -2.24609,-0.0916 -0.60011,-0.47203 -0.84549,-0.48106 -1.37704,-0.0506 -0.37605,0.30451 -0.4011,0.44164 -0.27862,1.52421 0.074,0.65429 0.26121,1.31626 0.41597,1.471 0.41934,0.41937 1.42084,0.26123 1.64969,-0.26045 z m -72.911722,-0.3547 c 0.15634,-0.40743 -0.17939,-0.91927 -0.60296,-0.91927 -0.18523,0 -0.42338,0.13727 -0.52919,0.30507 -0.28874,0.4577 -0.022,0.92337 0.52919,0.92337 0.27406,0 0.53584,-0.13423 0.60296,-0.30917 z m 88.513112,-0.17071 c 0.49912,-0.45169 0.46524,-0.95377 -0.10268,-1.52167 -0.44622,-0.44622 -0.47247,-0.58703 -0.47247,-2.53418 0,-1.94715 0.0263,-2.08793 0.47247,-2.53415 0.52465,-0.52464 0.59668,-1.00349 0.22706,-1.509 -0.32285,-0.44151 -2.3032,-0.56428 -2.92014,-0.18103 -0.54012,0.33555 -0.56468,1.20457 -0.0472,1.67286 0.33692,0.3049 0.37799,0.58208 0.37799,2.55132 0,1.96927 -0.0411,2.24645 -0.37799,2.55135 -0.49298,0.44614 -0.49058,1.3171 0.005,1.66394 0.53899,0.37754 2.35797,0.27535 2.8384,-0.15944 z m -45.37536,-0.73646 c 0.23919,-0.28819 -0.0214,-1.05151 -0.35915,-1.05151 -0.6305,0 -1.04986,0.78578 -0.63875,1.19692 0.21717,0.21717 0.763,0.13764 0.9979,-0.14541 z m 14.08964,-1.33501 c 0,-0.47186 -0.0758,-0.56695 -0.45186,-0.56695 -0.60496,0 -0.93652,0.52446 -0.59315,0.93821 0.14079,0.16965 0.43352,0.28308 0.6505,0.25207 0.29984,-0.0428 0.39451,-0.19243 0.39451,-0.62333 z m -28.4427,-0.47247 c 0,-0.47538 -0.566,-0.7828 -0.99706,-0.54155 -0.73449,0.41103 -0.0813,1.48334 0.66146,1.08585 0.18457,-0.0988 0.3356,-0.34372 0.3356,-0.5443 z m -26.250852,-0.20749 c 0.27122,-0.27122 0.367,-0.55062 0.30318,-0.88452 -0.0513,-0.26845 0.004,-0.64387 0.1229,-0.83429 0.16793,-0.26889 0.15166,-0.46178 -0.0729,-0.8636 -0.36835,-0.65915 -1.19446,-0.78724 -1.76154,-0.2731 -0.38674,0.35063 -0.49745,0.356 -2.38991,0.11605 -1.0914,-0.13841 -2.09068,-0.25485 -2.22062,-0.25874 -0.12991,-0.004 -0.23622,-0.12425 -0.23622,-0.26744 0,-0.68125 -1.37697,-1.00531 -1.80197,-0.4241 -0.27223,0.37229 -0.513,2.23168 -0.34549,2.66816 0.0661,0.17219 0.33732,0.39566 0.60275,0.49657 0.38666,0.14703 0.59219,0.1025 1.03362,-0.22386 0.53575,-0.39608 0.6106,-0.40095 2.70441,-0.17542 1.18438,0.12758 2.15339,0.30686 2.15339,0.39841 0,0.30948 0.75345,0.92236 1.13395,0.92236 0.20789,0 0.55637,-0.17841 0.77444,-0.39648 z m 11.64029,-0.47966 c 0.15634,-0.4074 -0.17942,-0.91924 -0.60299,-0.91924 -0.18523,0 -0.42336,0.13727 -0.52919,0.30504 -0.28871,0.45773 -0.022,0.92339 0.52919,0.92339 0.27406,0 0.53584,-0.13422 0.60299,-0.30919 z m 56.093442,-2.43115 c 0,-0.4309 -0.0947,-0.58049 -0.39451,-0.62333 -0.5749,-0.0821 -0.91703,0.39836 -0.64525,0.9062 0.3361,0.62801 1.03976,0.43659 1.03976,-0.28287 z m -12.53534,-3.43106 c 0.19009,-0.17203 0.34561,-0.4749 0.34561,-0.67308 0,-0.54112 3.87893,-2.37397 4.37219,-2.06594 0.48428,0.30244 0.92483,0.27069 1.32983,-0.0958 0.3924,-0.35512 0.45774,-1.20039 0.11897,-1.53918 -0.12467,-0.12464 -0.31602,-0.49433 -0.42524,-0.82151 -0.36329,-1.08831 -1.64998,-1.05108 -2.05761,0.0595 -0.18773,0.51147 -0.50678,0.73361 -2.1852,1.52149 -1.37333,0.64468 -2.02516,0.86278 -2.16391,0.72403 -0.37955,-0.37954 -1.23088,-0.22495 -1.56441,0.28411 -0.29985,0.4576 -0.29518,0.52488 0.0901,1.29635 0.22352,0.44755 0.40638,0.90649 0.40638,1.01987 0,0.56859 1.20305,0.76996 1.73327,0.29014 z m -44.869802,-0.60021 c 0.31581,-0.39195 0.29863,-0.97269 -0.0398,-1.3467 -0.24376,-0.26932 -0.20394,-0.5465 0.33986,-2.36691 0.53461,-1.78967 0.68958,-2.10267 1.17377,-2.37104 0.46937,-0.26014 0.55782,-0.4259 0.55782,-1.04521 0,-0.65434 -0.0629,-0.75472 -0.56695,-0.90453 -0.31184,-0.0927 -0.71464,-0.24358 -0.89514,-0.33528 -0.46942,-0.23855 -1.3526,-0.20579 -1.6184,0.06 -0.30779,0.30777 -0.28729,1.37764 0.0315,1.64217 0.40704,0.33782 -0.92593,4.51659 -1.46576,4.59502 -0.21246,0.0308 -0.51163,0.28019 -0.66485,0.55403 -0.2496,0.4462 -0.24489,0.54933 0.0453,0.99219 0.19799,0.30218 0.49736,0.49427 0.77036,0.49427 0.24556,0 0.67942,0.12083 0.96409,0.26852 0.56531,0.29329 1.00219,0.21776 1.36824,-0.23656 z m 66.760052,-1.54387 c 0,-0.47538 -0.56599,-0.7828 -0.99705,-0.54155 -0.73449,0.41103 -0.0813,1.48333 0.66146,1.08582 0.18457,-0.0988 0.33559,-0.34369 0.33559,-0.54427 z m -37.63403,-0.13687 c 0.24065,-0.43003 -0.0658,-0.99705 -0.53882,-0.99705 -0.47752,0 -0.78166,0.5489 -0.54703,0.98729 0.22905,0.42799 0.84868,0.43357 1.08585,0.01 z m 31.99677,-0.17592 c 0.37053,-0.33533 0.44537,-0.93784 0.17045,-1.37221 -0.11659,-0.18418 0.12851,-0.86656 0.78633,-2.18927 0.81691,-1.64256 1.04054,-1.94683 1.5397,-2.09476 1.13917,-0.33763 1.26474,-1.69381 0.1908,-2.06052 -0.30046,-0.10258 -0.58882,-0.23868 -0.64079,-0.30244 -0.052,-0.0637 -0.29154,-0.21971 -0.53238,-0.34661 -0.85181,-0.44878 -1.8131,0.64574 -1.34133,1.52726 0.19802,0.36999 0.0995,0.66397 -0.79272,2.36675 -0.79583,1.51868 -1.10549,1.94487 -1.41477,1.94701 -0.57087,0.004 -1.061,0.62802 -0.98839,1.25844 0.0483,0.4191 0.26355,0.6427 1.00635,1.04532 1.10813,0.6006 1.5445,0.64841 2.01675,0.22103 z m -41.23472,-0.63058 c 0.19262,-0.10308 0.4051,-0.43738 0.47221,-0.7429 0.0671,-0.30551 0.24409,-0.6568 0.39333,-0.78065 0.35239,-0.29247 0.34422,-0.74668 -0.0228,-1.2708 -0.3135,-0.44756 -1.17832,-0.57279 -1.52966,-0.22148 -0.13872,0.13875 -0.79674,-0.0815 -2.18442,-0.73112 -1.62822,-0.76221 -2.00828,-1.01881 -2.11011,-1.42457 -0.29305,-1.16758 -1.8561,-1.29694 -2.1227,-0.17566 -0.0688,0.28954 -0.24767,0.6677 -0.3974,0.84042 -0.41519,0.47882 -0.23297,1.32829 0.35541,1.65704 0.43193,0.24135 0.5746,0.24476 0.98781,0.0235 0.44671,-0.23905 0.63232,-0.18586 2.47173,0.70845 1.37442,0.66826 1.98871,1.06683 1.98871,1.2904 0,0.7837 0.93144,1.23751 1.69796,0.82728 z m -31.841552,-2.74191 c 0,-0.47188 -0.0758,-0.56694 -0.45188,-0.56694 -0.60497,0 -0.93652,0.52445 -0.59314,0.93821 0.14078,0.16965 0.43352,0.28308 0.6505,0.25207 0.29983,-0.0428 0.39452,-0.19243 0.39452,-0.62334 z m 19.552932,0.29718 c 0.29627,-0.55358 0.0429,-0.9888 -0.53653,-0.92162 -0.35753,0.0415 -0.51335,0.18315 -0.55936,0.50858 -0.10535,0.74512 0.74637,1.06614 1.09589,0.41304 z m 28.35447,0.0821 c 0.12879,-0.1552 0.25267,-0.51665 0.27533,-0.80322 0.0228,-0.28657 0.10495,-0.74697 0.18297,-1.02314 0.16908,-0.59836 -0.11757,-1.22 -0.63889,-1.38544 -0.35607,-0.11301 -1.12508,0.16986 -1.33736,0.49194 -0.13821,0.20968 -4.52858,-0.6087 -4.52858,-0.84416 0,-0.38899 -0.64573,-0.87852 -1.15888,-0.87852 -0.63148,0 -1.20382,0.72642 -1.02248,1.29776 0.0648,0.20423 0.0293,0.426 -0.0788,0.49286 -0.36377,0.22482 -0.21978,1.19555 0.22335,1.50596 0.55356,0.38769 0.88998,0.37113 1.36318,-0.0672 0.38436,-0.35602 0.42315,-0.35536 2.61077,0.0438 1.37246,0.25038 2.22059,0.49155 2.22059,0.63135 0,0.7071 1.41418,1.10993 1.88881,0.53803 z m 37.0559,-1.34009 c 0.33573,-0.40452 -0.002,-0.92908 -0.59813,-0.92908 -0.46272,0 -0.67768,0.43138 -0.47638,0.95596 0.13915,0.36262 0.76425,0.34698 1.07451,-0.0269 z m -30.07229,-0.72802 c 0.23916,-0.28819 -0.0216,-1.05151 -0.35914,-1.05151 -0.63052,0 -1.04988,0.78578 -0.63877,1.19692 0.21717,0.21717 0.763,0.13764 0.99791,-0.14541 z m -54.796532,-2.18544 c 0.48443,-0.48442 0.48062,-1.03132 -0.0106,-1.52251 -0.38163,-0.38164 -0.38333,-0.42392 -0.0945,-2.36808 0.16174,-1.08871 0.29408,-2.06377 0.29408,-2.1668 0,-0.10303 0.21466,-0.28512 0.477,-0.40466 0.60509,-0.27569 0.78749,-0.96456 0.40853,-1.54291 -0.39581,-0.60413 -2.45829,-0.86305 -2.9963,-0.37616 -0.44807,0.40552 -0.44641,1.29614 0.003,1.61406 0.33679,0.23823 0.33786,0.32192 0.0296,2.36987 -0.28297,1.87992 -0.377,2.16813 -0.82155,2.51783 -0.66431,0.52253 -0.68272,1.37427 -0.0388,1.79618 0.25477,0.16692 0.61622,0.25588 0.8032,0.19764 0.18698,-0.0582 0.46755,-0.0241 0.62347,0.0759 0.44685,0.28654 0.91308,0.21942 1.32291,-0.1904 z m 62.318832,-2.39593 c 0.89712,-0.9198 0.95696,-1.15208 0.45619,-1.77051 -0.24692,-0.30493 -0.53312,-0.4226 -0.99219,-0.40783 -0.56252,0.018 -0.83278,-0.16515 -2.10982,-1.43058 -1.29445,-1.28264 -1.46467,-1.53151 -1.46467,-2.14132 0,-0.84233 -0.34295,-1.15917 -1.16882,-1.0799 -0.43463,0.0417 -0.68393,0.19092 -0.81386,0.4871 -0.10302,0.23482 -0.34175,0.47596 -0.53055,0.53589 -0.46687,0.14816 -0.75362,0.94538 -0.50627,1.40755 0.26813,0.50099 0.87949,0.79277 1.34886,0.64381 0.31727,-0.1007 0.69903,0.17844 1.961,1.43383 0.92409,0.91932 1.52655,1.66434 1.4684,1.81589 -0.17634,0.45953 0.13227,1.21367 0.562,1.37343 0.58277,0.21664 0.86666,0.079 1.78973,-0.86736 z m 20.79729,0.55565 c 0.47966,-0.48551 0.63908,-0.52358 2.58999,-0.61862 1.98116,-0.0965 2.09844,-0.0811 2.49508,0.32837 0.51269,0.52925 1.07122,0.54859 1.56555,0.0543 0.32462,-0.32462 0.35942,-0.53533 0.25752,-1.55914 -0.13813,-1.38798 -0.30345,-1.65626 -1.0205,-1.65626 -0.49757,0 -1.12428,0.41285 -1.12428,0.74065 0,0.0807 -0.99251,0.20335 -2.20558,0.27265 -2.0467,0.11689 -2.23479,0.0985 -2.61077,-0.25469 -0.86268,-0.81044 -2.23033,-0.0954 -1.87509,0.98026 0.0789,0.23897 0.12274,0.70201 0.0974,1.02901 -0.034,0.4381 0.0678,0.67432 0.38671,0.89771 0.6001,0.42031 0.85435,0.38261 1.44398,-0.21421 z m -52.50757,-0.32401 c 0.39353,-0.47418 0.1597,-0.95403 -0.46494,-0.95403 -0.39049,0 -0.58174,0.10361 -0.62721,0.33983 -0.075,0.38962 0.27714,0.8886 0.62721,0.8886 0.13048,0 0.33967,-0.12348 0.46494,-0.2744 z m -11.0465,-0.86238 c 0.0652,-0.10552 0.40739,-0.31253 0.76036,-0.46003 1.13706,-0.47509 1.05533,-1.83052 -0.1289,-2.13739 -0.4894,-0.12681 -0.76756,-0.46381 -1.6805,-2.03588 -0.671,-1.15549 -1.02717,-1.95337 -0.92107,-2.06346 0.27652,-0.28705 0.20021,-1.08353 -0.13983,-1.45923 -0.41027,-0.45337 -1.0558,-0.43926 -1.4826,0.0324 -0.18814,0.20788 -0.49416,0.37798 -0.68003,0.37798 -0.36676,0 -0.92638,0.67286 -0.92638,1.11384 0,0.42889 0.58266,0.96504 1.04878,0.96504 0.33816,0 0.63373,0.3717 1.47013,1.84891 0.93665,1.65426 1.03566,1.9327 0.94025,2.64404 -0.0678,0.50559 -0.0204,0.89894 0.13012,1.08037 0.2663,0.32089 1.42745,0.38829 1.60967,0.0934 z m 49.68859,-2.75098 c 0.50513,-0.50512 0.22074,-1.09434 -0.48034,-0.99523 -0.7313,0.10343 -0.68132,1.2727 0.0551,1.28932 0.0705,0.003 0.26189,-0.13074 0.42522,-0.29409 z m -35.89424,-0.45897 c 0.0642,-0.10393 0.27716,-0.18899 0.4731,-0.18899 0.19595,0 0.58651,-0.19802 0.86791,-0.44009 0.67437,-0.58004 0.52226,-1.36003 -0.33557,-1.72071 -0.51372,-0.21601 -0.68104,-0.49432 -1.32795,-2.20872 -0.57226,-1.51667 -0.69465,-2.03599 -0.53952,-2.28973 0.26897,-0.44005 0.25445,-1.33776 -0.0262,-1.61843 -0.26207,-0.26204 -1.14017,-0.29919 -1.6184,-0.0684 -0.1805,0.0871 -0.5833,0.28112 -0.89514,0.4312 -0.39584,0.1905 -0.5855,0.43293 -0.62838,0.80332 -0.0689,0.59518 0.41137,1.25299 0.91485,1.25299 0.23868,0 0.52321,0.55036 1.09622,2.12053 0.6836,1.8732 0.74178,2.15596 0.49879,2.42448 -0.36288,0.40095 -0.34835,0.9194 0.0377,1.34599 0.33412,0.3692 1.28889,0.47006 1.4826,0.15661 z m -21.297402,-2.1099 c 0.0438,-0.37925 -0.043,-0.53559 -0.35182,-0.63362 -0.54909,-0.17428 -1.01782,0.29446 -0.84357,0.84355 0.19955,0.62867 1.11702,0.46754 1.19539,-0.20993 z m 37.229032,-1.62377 c 0.63302,-0.64135 0.78541,-0.91485 0.68962,-1.23785 -0.16678,-0.56251 -0.62002,-0.8871 -1.23862,-0.8871 -0.73619,0 -3.43489,-2.91412 -3.2852,-3.5474 0.12962,-0.54829 -0.19414,-1.15472 -0.72324,-1.35461 -0.49601,-0.18743 -0.76975,-0.0582 -1.71972,0.81198 -1.13315,1.0379 -0.88153,2.20014 0.47632,2.20014 0.7362,0 3.4349,2.91409 3.28517,3.5474 -0.12978,0.54896 0.19474,1.15562 0.72326,1.35213 0.56596,0.21039 0.84985,0.0703 1.79241,-0.88469 z m 27.73395,-0.24537 c 0.19327,-0.21355 0.36154,-0.575 0.37397,-0.8032 0.0124,-0.2282 0.0895,-0.64942 0.17122,-0.93602 0.31981,-1.12135 -0.95362,-1.93032 -1.81355,-1.1521 -0.31947,0.28914 -0.49286,0.28633 -2.44656,-0.0396 -1.79323,-0.29914 -2.13034,-0.4114 -2.29045,-0.76282 -0.25727,-0.56462 -1.00752,-0.88969 -1.47544,-0.63926 -0.48733,0.26083 -0.79587,0.87561 -0.65777,1.31069 0.062,0.19521 0.0242,0.40963 -0.084,0.47649 -0.29662,0.18333 -0.23598,0.9779 0.1003,1.31416 0.38151,0.38153 1.1868,0.38103 1.60892,0 0.29984,-0.27136 0.47851,-0.27088 1.99925,0.005 2.64836,0.48083 2.70944,0.49816 2.70944,0.76954 0,0.31266 0.72296,0.84614 1.14668,0.84614 0.16865,0 0.46476,-0.17473 0.65801,-0.38828 z m -37.36518,-0.3447 c 0.13903,-0.0881 0.22407,-0.36322 0.18898,-0.61132 -0.0878,-0.62072 -1.01234,-0.75166 -1.19711,-0.16952 -0.21446,0.6758 0.41034,1.15975 1.00813,0.78084 z m 45.16261,-0.99894 c 0.0719,-0.6218 -0.59559,-0.93003 -1.04367,-0.48196 -0.44808,0.4481 -0.13984,1.11559 0.48193,1.04367 0.3864,-0.0447 0.51704,-0.17534 0.56174,-0.56171 z m -29.91836,-1.38639 c 0,-0.47188 -0.0758,-0.56697 -0.45187,-0.56697 -0.60496,0 -0.93653,0.52448 -0.59314,0.93821 0.14079,0.16965 0.43352,0.2831 0.65049,0.25209 0.29984,-0.0428 0.39452,-0.19243 0.39452,-0.62333 z m -42.628142,-0.46148 c 0.14971,-0.0947 0.42172,-0.45485 0.6045,-0.80032 0.18277,-0.34544 0.43381,-0.81594 0.55784,-1.04558 0.18474,-0.34197 0.1659,-0.50847 -0.10421,-0.92069 -0.2956,-0.45114 -0.41278,-0.49186 -1.13157,-0.39333 -0.72681,0.0996 -0.97256,0.01 -2.62639,-0.96007 -1.44015,-0.84455 -1.82457,-1.15864 -1.82457,-1.49079 0,-1.10953 -1.54704,-1.37825 -2.07296,-0.36008 -0.15917,0.30811 -0.39568,0.67564 -0.52562,0.81669 -0.75393,0.81854 0.20873,2.21885 1.21137,1.76202 0.44053,-0.20071 0.66559,-0.11734 2.35122,0.8709 1.47757,0.86625 1.86473,1.181 1.86743,1.51808 0.007,0.8377 1.01251,1.43372 1.69296,1.00317 z m 12.453842,0.0119 c 0.13901,-0.0881 0.22404,-0.36322 0.18896,-0.61132 -0.0878,-0.62071 -1.01231,-0.75165 -1.19708,-0.16952 -0.2145,0.6758 0.41032,1.15975 1.00812,0.78084 z m 35.20578,-1.5784 c 0.11015,-0.20584 0.15211,-0.64169 0.0932,-0.96858 -0.0902,-0.50081 0.08,-0.88464 1.08219,-2.43988 0.6541,-1.01505 1.24088,-1.79396 1.30396,-1.73088 0.20571,0.20571 0.9026,-0.1274 1.19267,-0.5701 0.36355,-0.55486 0.097,-1.34091 -0.51896,-1.53035 -0.23982,-0.0738 -0.58819,-0.29366 -0.77413,-0.48866 -0.79677,-0.83547 -1.97026,-0.12562 -1.77558,1.07405 0.0981,0.60465 -0.0211,0.88069 -1.06126,2.45666 -0.99975,1.51479 -1.24746,1.77612 -1.68716,1.77993 -0.72217,0.006 -1.2272,0.78372 -0.93118,1.43343 0.11741,0.25768 0.41887,0.5466 0.66991,0.64207 0.25103,0.0954 0.51591,0.26976 0.58862,0.38743 0.37292,0.60338 1.4854,0.57578 1.81769,-0.0451 z m -60.796472,-0.25347 c 0.35645,-0.35642 0.36907,-0.50027 0.0702,-0.79914 -0.3403,-0.34031 -0.86894,-0.27332 -1.0891,0.13806 -0.1474,0.27543 -0.12255,0.43756 0.10134,0.66145 0.37261,0.37262 0.54467,0.37254 0.91757,0 z m 84.087732,-1.79559 c 0.31401,-0.24699 0.49908,-0.57862 0.50101,-0.89771 0.003,-0.42042 0.29419,-0.71371 1.72483,-1.73442 0.947,-0.67561 1.77481,-1.21695 1.83958,-1.20293 0.0648,0.014 0.30774,0.0831 0.53988,0.15349 0.31107,0.0943 0.55023,-1.6e-4 0.90942,-0.35936 0.54492,-0.54494 0.50432,-1.10389 -0.11951,-1.64529 -0.19885,-0.17258 -0.36155,-0.37848 -0.36155,-0.45759 0,-0.0791 -0.14075,-0.29935 -0.31278,-0.48943 -0.64399,-0.7116 -1.83475,-0.24323 -1.81242,0.71292 0.0112,0.47935 -0.20755,0.70726 -1.74897,1.82219 -1.5364,1.11133 -1.83707,1.25925 -2.3507,1.15652 -1.11284,-0.22257 -1.886,1.28489 -0.95667,1.86526 0.20788,0.12983 0.37797,0.33697 0.37797,0.46035 0,0.22666 0.87888,1.00769 1.13392,1.00769 0.0759,0 0.3621,-0.17627 0.63599,-0.39169 z m -59.59758,-2.02934 c 0.54123,-0.43826 0.5587,-1.31 0.0344,-1.7181 -0.3619,-0.28167 -0.38081,-0.4395 -0.27992,-2.33413 0.10157,-1.90727 0.14134,-2.06666 0.64802,-2.59685 0.62833,-0.65749 0.66566,-0.93793 0.20129,-1.51141 -0.44842,-0.55377 -2.39508,-0.71898 -2.9161,-0.24747 -0.45713,0.41368 -0.43472,1.31485 0.0401,1.61137 0.35279,0.22032 0.36854,0.37076 0.25225,2.4112 -0.11895,2.08762 -0.14639,2.19715 -0.67414,2.69071 -0.42044,0.39317 -0.51998,0.61597 -0.42219,0.94493 0.1838,0.6182 0.6468,0.91543 1.35205,0.86794 0.33785,-0.0227 0.674,0.0183 0.74697,0.0913 0.22222,0.22225 0.57346,0.14991 1.01729,-0.20947 z m 47.62231,-0.41381 c 0,-0.49596 -0.68671,-0.85968 -1.05152,-0.55692 -0.63427,0.52639 -0.009,1.48894 0.71592,1.10122 0.18459,-0.0988 0.3356,-0.34372 0.3356,-0.5443 z m -75.939472,-1.03288 c 0.13737,-0.15229 0.34681,-0.39396 0.46548,-0.53702 0.13065,-0.15754 1.01042,-0.35431 2.23097,-0.49895 1.84732,-0.21892 2.04533,-0.21159 2.37659,0.0882 0.70247,0.63574 1.90151,0.26673 1.90685,-0.58682 0.006,-0.90757 -0.23437,-2.07354 -0.47686,-2.316 -0.5438,-0.5438 -1.58064,-0.23127 -1.8525,0.55843 -0.0297,0.0864 -1.01389,0.29064 -2.18702,0.454 -2.09209,0.29128 -2.14239,0.28956 -2.62409,-0.0894 -0.60968,-0.47959 -1.0437,-0.48996 -1.45563,-0.0348 -0.42683,0.47162 -0.28112,2.64655 0.20114,3.00299 0.43024,0.31801 1.10921,0.29848 1.41507,-0.0407 z m 44.081492,-2.09891 c 0.16332,-0.16336 0.29697,-0.40529 0.29697,-0.53769 0,-0.13237 0.17009,-0.3946 0.37798,-0.58274 0.20788,-0.18815 0.37799,-0.5415 0.37799,-0.78526 0,-0.85693 -1.1151,-1.52035 -1.65238,-0.98306 -0.16209,0.16209 -0.70265,-0.0678 -2.16392,-0.9203 -1.6255,-0.94832 -1.96361,-1.22531 -2.04301,-1.67386 -0.0567,-0.32025 -0.29615,-0.65027 -0.59243,-0.81658 -0.4459,-0.25027 -0.54835,-0.24564 -0.99153,0.0447 -0.27183,0.17812 -0.49423,0.47307 -0.49423,0.65545 0,0.1824 -0.17011,0.47726 -0.37799,0.65524 -0.88979,0.7619 -0.15767,1.97562 1.07138,1.77618 0.61412,-0.0997 0.93395,0.0209 2.55563,0.96258 1.62805,0.94546 1.85366,1.13908 1.85366,1.59099 0,0.8336 1.16198,1.2342 1.78188,0.61431 z m -26.444842,-1.87637 c 0,-0.47189 -0.0758,-0.56698 -0.45189,-0.56698 -0.60494,0 -0.93651,0.52446 -0.59314,0.93821 0.14081,0.16965 0.43352,0.28308 0.65051,0.2521 0.29982,-0.0429 0.39452,-0.19246 0.39452,-0.62333 z m 37.047552,0.34507 c 0.21701,-0.21702 0.28571,-0.50533 0.21875,-0.918 -0.0861,-0.53047 0.0671,-0.80304 1.29556,-2.30476 1.17691,-1.43875 1.46359,-1.68971 1.84663,-1.61647 0.96331,0.18415 1.57179,-1.40793 0.73821,-1.93146 -0.16551,-0.10393 -0.47648,-0.36851 -0.69107,-0.58793 -0.61699,-0.63093 -1.11296,-0.7008 -1.69947,-0.23945 -0.43452,0.34179 -0.49983,0.50583 -0.40424,1.01534 0.1022,0.54483 -0.0245,0.77655 -1.22553,2.24147 -1.05801,1.29048 -1.44282,1.63383 -1.83116,1.63383 -1.16342,0 -1.6253,1.40972 -0.66318,2.02398 0.28586,0.18248 0.63085,0.4821 0.76668,0.6658 0.31248,0.42264 1.23398,0.43251 1.64882,0.0177 z m -5.87802,-1.30353 c 0.50453,-0.50453 0.2209,-1.09452 -0.47842,-0.99523 -0.50885,0.0723 -0.69287,0.60587 -0.351,1.0178 0.29076,0.35034 0.46114,0.34571 0.82942,-0.0225 z m 41.62689,-0.20116 c 0.12337,-0.32152 -0.1176,-0.85196 -0.43512,-0.95782 -0.38765,-0.12919 -0.87887,0.43514 -0.74525,0.85617 0.15742,0.49591 1.00118,0.56859 1.18037,0.10165 z m -55.9074,-0.2057 c 0.24066,-0.43002 -0.0658,-0.99705 -0.5388,-0.99705 -0.47755,0 -0.78166,0.5489 -0.54705,0.98729 0.22905,0.42799 0.84867,0.43357 1.08585,0.01 z m 43.8286,-0.15732 c 0.24192,-0.16946 0.42002,-0.49281 0.42002,-0.76261 0,-0.25762 0.13362,-0.67233 0.29691,-0.92154 0.64974,-0.99161 -0.7301,-2.13416 -1.61272,-1.33538 -0.27124,0.24548 -0.54124,0.19431 -2.3694,-0.449 -1.71119,-0.60214 -2.08993,-0.806 -2.21948,-1.19467 -0.0859,-0.25776 -0.38117,-0.57116 -0.6561,-0.69641 -0.42448,-0.19341 -0.57317,-0.17327 -0.98555,0.1334 -0.26711,0.19863 -0.51411,0.56523 -0.54891,0.81466 -0.0348,0.24942 -0.14108,0.5343 -0.23623,0.63304 -0.27654,0.28704 -0.20025,1.08349 0.1398,1.45923 0.36618,0.40465 0.98802,0.44714 1.46278,0.10001 0.28502,-0.20844 0.63504,-0.14266 2.31111,0.43418 1.65336,0.56904 2.03311,0.77505 2.33056,1.26415 0.51639,0.84913 0.98818,0.99653 1.66721,0.52094 z M 144.37145,153.06 c 0.5891,-0.22606 0.2836,-1.39719 -0.36447,-1.39719 -0.13557,0 -0.65951,0.60055 -0.65951,0.75594 0,0.15539 0.52394,0.75597 0.65951,0.75597 0.036,0 0.20005,-0.0516 0.36447,-0.11472 z m -44.829422,-2.64033 c 0.13404,-0.16402 0.477542,-0.55933 0.763402,-0.87847 0.9366,-1.04577 0.5811,-2.11923 -0.666222,-2.01176 -0.55364,0.0477 -0.85304,-0.12827 -2.26737,-1.33257 -1.42291,-1.21158 -1.63677,-1.47371 -1.6867,-2.06696 -0.0937,-1.11381 -1.40089,-1.44325 -1.93799,-0.48839 -0.10893,0.19365 -0.38939,0.51049 -0.62328,0.70411 -0.91821,0.7602 -0.17865,2.24176 0.97457,1.95233 0.37383,-0.0938 0.75358,0.13584 2.07502,1.25484 1.3412,1.13573 1.61835,1.46397 1.62266,1.92175 0.01,1.03944 1.16001,1.66206 1.74591,0.94512 z m -15.02834,-2.27883 c 0.15635,-0.40741 -0.17941,-0.91924 -0.60298,-0.91924 -0.18524,0 -0.42336,0.13726 -0.52919,0.30503 -0.28872,0.45771 -0.022,0.92337 0.52919,0.92337 0.27405,0 0.53583,-0.13422 0.60298,-0.30916 z m 88.774892,-0.55478 c 0.16335,-0.16333 0.29698,-0.36602 0.29698,-0.45043 0,-0.0844 0.16805,-0.19738 0.37343,-0.25109 0.20538,-0.0537 0.47258,-0.31527 0.59377,-0.58126 0.33051,-0.72538 -0.19119,-1.44404 -1.04829,-1.44404 -0.56184,0 -0.81581,-0.19439 -2.09559,-1.60404 -1.20451,-1.32675 -1.43648,-1.68277 -1.34194,-2.05949 0.28303,-1.12763 -1.51742,-1.82898 -1.99641,-0.77769 -0.11841,0.25985 -0.32724,0.47247 -0.46407,0.47247 -0.13682,0 -0.38513,0.20807 -0.55177,0.46238 -0.2605,0.39759 -0.26754,0.53668 -0.0503,0.99219 0.199,0.41717 0.40109,0.54216 0.95066,0.58788 0.59714,0.0497 0.90397,0.27712 2.12477,1.57485 1.24851,1.32718 1.42684,1.60454 1.42684,2.21922 0,0.38635 0.10206,0.80452 0.22679,0.92924 0.32108,0.3211 1.20364,0.28126 1.5551,-0.0702 z m -13.72516,-1.616 c 0.0867,-0.74795 -0.89877,-0.9548 -1.17085,-0.24577 -0.18865,0.4916 0.0958,0.85934 0.61781,0.79881 0.37572,-0.0436 0.50948,-0.17733 0.55304,-0.55304 z m -32.27993,-1.48881 c 0.45182,-0.45182 0.4799,-0.90429 0.0906,-1.4601 -0.26142,-0.37325 -0.24196,-0.59145 0.2156,-2.41747 0.41806,-1.66844 0.58619,-2.06007 0.99608,-2.3205 0.6156,-0.39111 0.77002,-0.60328 0.7737,-1.06307 0.004,-0.5424 -0.55367,-1.05434 -1.14917,-1.05434 -0.28959,0 -0.5791,-0.085 -0.64333,-0.18896 -0.22089,-0.3574 -1.19394,-0.20765 -1.50119,0.23103 -0.37696,0.53819 -0.37177,0.88188 0.0198,1.31463 0.29382,0.3247 0.27906,0.48612 -0.22955,2.50868 -0.47379,1.88399 -0.59992,2.17577 -0.98195,2.27166 -1.03981,0.26096 -0.97253,1.86412 0.0878,2.09222 0.28938,0.0623 0.69623,0.18642 0.90411,0.2759 0.61571,0.26506 1.01628,0.21146 1.41742,-0.18968 z m -43.656262,-0.18899 c 0.42776,-0.42772 0.46014,-0.62727 0.18521,-1.14099 -0.15896,-0.29699 0.0259,-0.67603 1.05402,-2.16093 0.99455,-1.43642 1.33946,-1.80075 1.70469,-1.80075 0.55496,0 1.21383,-0.61548 1.21383,-1.13393 0,-0.42079 -0.62513,-1.13392 -0.99399,-1.13392 -0.13092,0 -0.34425,-0.1701 -0.47408,-0.37799 -0.30652,-0.49085 -1.20229,-0.49498 -1.64341,-0.008 -0.24725,0.27321 -0.30369,0.53856 -0.21502,1.01116 0.10623,0.56623 -0.0161,0.84173 -1.0522,2.3699 -0.85061,1.25455 -1.28087,1.72918 -1.5676,1.72918 -0.66149,0 -1.23526,0.53061 -1.23526,1.14229 0,0.43868 0.15393,0.65103 0.74006,1.02105 0.40704,0.25698 0.79476,0.55568 0.86162,0.66384 0.2014,0.32589 1.01917,0.22162 1.42213,-0.18134 z m 30.574012,-0.86116 c 0.23104,-0.1618 0.42003,-0.42037 0.42003,-0.5746 0,-0.15425 0.18933,-0.53652 0.42074,-0.8495 0.39002,-0.52755 0.39995,-0.60626 0.13579,-1.07902 -0.30375,-0.54359 -1.15266,-0.78338 -1.56419,-0.44183 -0.16206,0.13449 -0.77619,-0.12435 -2.1033,-0.88648 -1.59378,-0.91525 -1.89802,-1.1674 -2.03186,-1.68384 -0.31178,-1.20325 -1.66319,-1.29775 -2.1428,-0.14986 -0.14751,0.35301 -0.35448,0.69517 -0.46002,0.76039 -0.30733,0.18994 -0.2286,1.37983 0.10357,1.56572 0.26792,0.14994 0.26792,0.18817 0,0.41053 -0.39497,0.32779 -0.37449,0.89921 0.0402,1.12114 0.7298,0.39058 1.40028,-0.67235 0.67879,-1.07614 -0.24434,-0.13673 -0.16513,-0.19954 0.38079,-0.30194 0.60645,-0.11377 0.91046,-0.004 2.52912,0.9126 1.58809,0.89935 1.84386,1.11252 1.86936,1.55784 0.0519,0.90535 0.93126,1.27011 1.72379,0.71499 z m 33.14083,-2.09929 c 0.32346,-0.38975 0.41341,-2.61392 0.11534,-2.85236 -0.55964,-0.44771 -1.07589,-0.45122 -1.51548,-0.0103 -0.42927,0.43058 -0.46685,0.4341 -2.57435,0.24148 -2.00445,-0.1832 -2.1622,-0.2277 -2.51259,-0.70871 -0.44043,-0.6046 -1.12777,-0.67273 -1.63811,-0.1624 -0.46052,0.46053 -0.52852,2.52259 -0.0974,2.9537 0.39759,0.39759 1.00967,0.35735 1.49463,-0.0982 0.3932,-0.36938 0.4956,-0.37576 2.60669,-0.16171 1.8903,0.19164 2.21351,0.2735 2.31259,0.58571 0.21477,0.67664 1.31622,0.80623 1.80871,0.21283 z m 10.82746,-0.73832 c 0.34729,-0.34726 0.3814,-0.89307 0.0898,-1.43782 -0.16719,-0.3124 -0.0673,-0.76878 0.51788,-2.36636 0.64294,-1.75527 0.79268,-2.0076 1.32285,-2.22911 0.32882,-0.1374 0.65562,-0.4318 0.72623,-0.65429 0.17951,-0.56557 -0.36346,-1.31905 -1.04941,-1.45624 -0.30927,-0.0619 -0.60809,-0.18653 -0.66403,-0.27704 -0.1707,-0.2762 -1.06819,-0.18349 -1.43469,0.14819 -0.40763,0.36888 -0.45099,1.06675 -0.0888,1.42896 0.21643,0.21643 0.1347,0.58989 -0.51972,2.37495 -0.4906,1.33821 -0.87544,2.11847 -1.04515,2.11903 -0.44325,0.003 -0.95981,0.59451 -0.95981,1.10198 0,0.61021 0.50446,1.16676 1.05757,1.16676 0.23761,0 0.48458,0.085 0.54883,0.189 0.18147,0.29363 1.16787,0.22254 1.49839,-0.10801 z m -63.049802,-0.5879 c 0.0762,-0.53483 -0.61148,-0.9525 -1.01574,-0.61698 -0.28781,0.23884 -0.36155,0.78176 -0.13673,1.00658 0.2944,0.2944 1.09355,0.0243 1.15247,-0.3896 z m 26.588612,-0.72149 c 0,-0.47189 -0.0758,-0.56698 -0.45187,-0.56698 -0.60497,0 -0.93653,0.52446 -0.59315,0.93821 0.14078,0.16965 0.43352,0.28308 0.6505,0.2521 0.29984,-0.0429 0.39452,-0.19246 0.39452,-0.62333 z m 13.5191,0.0824 c 0.26511,-0.49535 -0.0837,-0.97594 -0.64944,-0.89472 -0.40506,0.0582 -0.60183,0.53428 -0.41837,1.01235 0.15508,0.40413 0.82828,0.32996 1.06781,-0.11763 z m 36.37375,-1.21634 c 0,-0.47186 -0.0758,-0.56695 -0.45186,-0.56695 -0.60496,0 -0.93653,0.52445 -0.59314,0.93821 0.14079,0.16965 0.4335,0.28308 0.65048,0.25207 0.29985,-0.0428 0.39452,-0.19243 0.39452,-0.62333 z m -73.610862,-2.74032 c 0.47992,-0.47993 0.48212,-1.09321 0.006,-1.60028 -0.35375,-0.37653 -0.3614,-0.50464 -0.15386,-2.58106 0.19042,-1.90532 0.26792,-2.20681 0.60579,-2.3563 0.21307,-0.0943 0.46945,-0.40714 0.56976,-0.69525 0.27,-0.7757 -0.2666,-1.20425 -1.70744,-1.36357 -0.93723,-0.10364 -1.21076,-0.0691 -1.46465,0.18476 -0.41773,0.41773 -0.39492,1.14743 0.0498,1.59212 0.33883,0.33882 0.34899,0.49284 0.15899,2.40961 -0.18602,1.8764 -0.24789,2.09018 -0.73995,2.55667 -0.63824,0.60507 -0.68252,1.14075 -0.1393,1.68399 0.28214,0.28215 0.54552,0.36809 0.90659,0.29589 0.27993,-0.056 0.63251,-0.0236 0.78354,0.0719 0.42078,0.2662 0.71161,0.21489 1.12501,-0.19849 z m 52.342162,-0.0854 c 0.39354,-0.47418 0.15971,-0.95403 -0.46492,-0.95403 -0.39051,0 -0.58174,0.10361 -0.62723,0.3398 -0.075,0.38965 0.27717,0.88863 0.62723,0.88863 0.13046,0 0.33968,-0.12348 0.46492,-0.2744 z m 22.92234,-3.08729 c 0.56055,-0.48755 0.32166,-1.51392 -0.41226,-1.77136 -0.10055,-0.0353 -0.2414,-1.05164 -0.31304,-2.25856 -0.12348,-2.0806 -0.10927,-2.21541 0.27391,-2.59859 0.96898,-0.96898 0.22635,-1.93807 -1.39124,-1.81549 -0.51972,0.0394 -1.00264,0.0754 -1.07317,0.08 -0.0705,0.005 -0.26189,0.14204 -0.42523,0.30538 -0.43908,0.43908 -0.36261,1.13588 0.17069,1.55536 0.4302,0.33839 0.47781,0.53497 0.59432,2.45321 0.11842,1.94964 0.10028,2.11889 -0.27868,2.60067 -0.50618,0.64349 -0.51376,1.11186 -0.0259,1.59972 0.32596,0.32597 0.5324,0.3624 1.46465,0.2584 0.59686,-0.0666 1.23403,-0.25054 1.41594,-0.40876 z m -52.73563,-1.22126 c 0.49345,-0.38791 0.56836,-0.98274 0.18664,-1.48222 -0.34044,-0.44546 -0.33608,-0.49872 0.21016,-2.56187 0.46431,-1.75368 0.63341,-2.14137 1.00859,-2.31232 0.24794,-0.11296 0.54664,-0.41576 0.66379,-0.67289 0.29678,-0.65139 -0.17838,-1.34977 -1.01182,-1.48711 -0.3433,-0.0566 -0.86104,-0.16192 -1.15052,-0.23412 -0.99342,-0.24777 -1.69476,1.02154 -0.99292,1.79706 0.24225,0.26769 0.24112,0.44337 -0.009,1.4323 -0.69372,2.73918 -0.8058,3.00741 -1.39531,3.33899 -0.99184,0.55793 -0.59846,2.03658 0.54361,2.04332 0.26974,0.003 0.61802,0.0853 0.77391,0.18609 0.38884,0.25127 0.81531,0.2341 1.17325,-0.0472 z m -35.866042,-0.81672 c 0.16335,-0.16333 0.29699,-0.36986 0.29699,-0.45897 0,-0.31044 -0.61769,-0.77692 -0.89027,-0.67233 -0.15102,0.058 -0.31014,0.10538 -0.35361,0.10538 -0.19849,0 -0.0524,1.11318 0.15718,1.19774 0.39042,0.15754 0.4798,0.13809 0.78971,-0.17182 z m 74.204482,-0.75829 c 0.33574,-0.40453 -0.002,-0.92909 -0.59812,-0.92909 -0.46272,0 -0.67768,0.43138 -0.47638,0.95597 0.13915,0.36261 0.76425,0.34697 1.0745,-0.0269 z M 83.786958,128.6811 c 0.33576,-0.23519 0.42008,-0.45088 0.37603,-0.96203 -0.0498,-0.57841 0.11478,-0.86457 1.34797,-2.34341 1.08172,-1.2972 1.48506,-1.65903 1.75414,-1.57364 0.53401,0.1695 1.27582,-0.40997 1.27582,-0.9966 0,-0.53909 -0.4748,-1.1917 -0.86699,-1.1917 -0.13282,0 -0.29538,-0.16989 -0.36129,-0.37754 -0.16965,-0.53452 -0.93612,-0.67866 -1.53215,-0.28812 -0.41193,0.26989 -0.47704,0.43047 -0.40947,1.00947 0.0734,0.62826 -0.0406,0.83081 -1.30227,2.31422 -1.19515,1.40523 -1.46344,1.6257 -1.97827,1.6257 -0.98883,0 -1.46002,1.06287 -0.79631,1.79625 0.17203,0.19009 0.38078,0.34563 0.46389,0.34563 0.0831,0 0.3637,0.21259 0.62357,0.47246 0.55181,0.55182 0.81412,0.58341 1.40533,0.16931 z m 40.814422,-0.48382 c 0.0439,-0.37925 -0.0429,-0.53561 -0.35179,-0.63364 -0.54909,-0.17427 -1.01786,0.29447 -0.84357,0.84356 0.19955,0.62868 1.11701,0.46755 1.19536,-0.20992 z m 6.6844,0.0574 c 0.39513,-0.48661 0.64262,-0.57125 2.48083,-0.84849 l 2.0419,-0.30797 0.56645,0.41879 c 0.5251,0.38822 0.60364,0.39796 1.07638,0.13348 0.52693,-0.2948 0.73675,-0.91461 0.49681,-1.4676 -0.0756,-0.17434 -0.1179,-0.51518 -0.0939,-0.75742 0.11085,-1.11931 -1.36893,-1.57834 -2.0418,-0.63338 -0.34597,0.48587 -0.56269,0.5604 -2.47046,0.8497 -2.055,0.31162 -2.09778,0.31057 -2.46846,-0.0601 -0.48603,-0.48604 -1.03124,-0.47918 -1.52965,0.0192 -0.29147,0.29148 -0.36426,0.52921 -0.27477,0.8977 0.0669,0.27567 0.14175,0.76785 0.1663,1.09373 0.096,1.27379 1.25093,1.64688 2.05039,0.66234 z m -25.7066,-1.9163 c 0.28102,-0.59319 0.51261,-0.73664 2.24387,-1.38981 1.6657,-0.62846 1.99013,-0.69642 2.36542,-0.49557 1.01368,0.54249 2.13015,-0.49204 1.52604,-1.41404 -0.14904,-0.22746 -0.30013,-0.61141 -0.33576,-0.85322 -0.0356,-0.24181 -0.29864,-0.61361 -0.58447,-0.82624 l -0.51972,-0.38659 -0.51971,0.38659 c -0.28587,0.21263 -0.54542,0.55812 -0.57683,0.76777 -0.0745,0.4973 -4.10646,2.10752 -4.44058,1.77341 -0.30782,-0.30783 -1.09306,-0.2526 -1.48781,0.10464 -0.41859,0.37881 -0.44936,1.06674 -0.0621,1.38812 0.15589,0.1294 0.28347,0.40951 0.28347,0.62247 0,0.6219 0.56502,1.10431 1.2185,1.04034 0.44737,-0.0438 0.64648,-0.20444 0.8897,-0.71787 z m 8.27612,0.29556 c 0.23916,-0.28817 -0.0217,-1.05151 -0.35915,-1.05151 -0.63052,0 -1.04989,0.7858 -0.63875,1.19692 0.21717,0.21717 0.76301,0.13764 0.9979,-0.14541 z m 30.75684,-0.35894 c 0.3141,-0.39929 0.55079,-0.45372 2.48414,-0.57114 2.03796,-0.12378 2.15218,-0.11099 2.46555,0.27599 0.36132,0.44622 1.18364,0.53886 1.61385,0.18181 0.33093,-0.27464 0.36226,-2.50953 0.0409,-2.91535 -0.4403,-0.55598 -1.02875,-0.55306 -1.58207,0.008 -0.49852,0.50536 -0.62405,0.5345 -2.69623,0.62594 -2.08334,0.0919 -2.18763,0.0783 -2.51781,-0.32931 -0.40303,-0.49754 -0.82717,-0.53847 -1.40268,-0.13537 -0.34816,0.24386 -0.41097,0.46125 -0.39586,1.37016 0.01,0.59418 0.13661,1.27167 0.28163,1.50554 0.35906,0.57905 1.24705,0.57067 1.70862,-0.0161 z m 18.53702,-0.60879 c 0.23103,-0.16182 0.42004,-0.38594 0.42004,-0.49805 0,-0.11212 0.2126,-0.40089 0.47246,-0.64172 0.57634,-0.53413 0.60251,-1.08184 0.0768,-1.60756 -0.3011,-0.3011 -0.53874,-0.36885 -0.99414,-0.28341 -0.53142,0.0997 -0.78343,-0.0366 -2.25014,-1.21696 -1.323,-1.06471 -1.6517,-1.42846 -1.6517,-1.82782 0,-0.59975 -0.48931,-1.18981 -0.98666,-1.18981 -0.50153,0 -1.09221,0.34289 -1.09221,0.63403 0,0.13351 -0.2126,0.42761 -0.47247,0.65355 -0.91825,0.79841 -0.41679,1.99823 0.79163,1.89411 0.55828,-0.0481 0.87542,0.1314 2.34422,1.32675 1.3365,1.08769 1.67434,1.45885 1.58474,1.74111 -0.0755,0.2378 0.0465,0.51908 0.36176,0.83436 0.55229,0.55228 0.81706,0.5867 1.39568,0.18142 z m -63.755302,-4.53813 c 0.40608,-0.40608 0.0678,-1.02631 -0.55972,-1.02631 -0.25623,0 -0.46583,0.0356 -0.46583,0.079 0,0.0435 -0.0474,0.20259 -0.10538,0.35361 -0.10459,0.27258 0.36189,0.89027 0.67233,0.89027 0.0891,0 0.29546,-0.13347 0.4586,-0.29661 z m 72.672272,-0.54476 c 0.39353,-0.47419 0.1597,-0.95402 -0.46494,-0.95402 -0.39049,0 -0.58174,0.10361 -0.62723,0.33981 -0.075,0.38963 0.27717,0.88861 0.62723,0.88861 0.13046,0 0.33968,-0.12348 0.46494,-0.2744 z m -31.93899,-0.56697 c 0.12647,-0.15239 0.17158,-0.45142 0.10141,-0.67245 -0.18474,-0.58212 -1.10933,-0.45118 -1.19709,0.16953 -0.0983,0.69535 0.65068,1.03913 1.09568,0.50292 z m -57.853542,-1.78148 c 0.13901,-0.0881 0.22408,-0.36321 0.18899,-0.61131 -0.0767,-0.54207 -0.85296,-0.63275 -1.16615,-0.13622 -0.3601,0.57087 0.37214,1.13103 0.97716,0.74753 z m 43.581742,-2.33289 c 0.36887,-0.52661 0.37236,-0.88129 0.0124,-1.27885 -0.25199,-0.27845 -0.19429,-0.5289 0.54771,-2.37724 0.65575,-1.63354 0.91348,-2.07876 1.23124,-2.127 0.56049,-0.0851 1.02992,-0.86133 0.88061,-1.45621 -0.11644,-0.46394 -0.91807,-0.95206 -1.23841,-0.75407 -0.0834,0.0516 -0.25683,-0.0329 -0.38526,-0.18764 -0.38631,-0.46547 -1.26756,-0.34996 -1.6375,0.21464 -0.30192,0.4608 -0.30313,0.53413 -0.0172,1.03241 0.29827,0.5197 0.28236,0.59975 -0.51107,2.57324 -0.66035,1.64253 -0.90428,2.057 -1.26,2.14098 -0.24262,0.0573 -0.56491,0.32467 -0.7162,0.59422 -0.24527,0.43697 -0.23997,0.54366 0.0488,0.98434 0.19748,0.30137 0.49752,0.49425 0.76882,0.49425 0.24474,0 0.55084,0.12756 0.68025,0.28348 0.35742,0.43066 1.252,0.35411 1.59567,-0.13655 z m -24.80884,-0.45971 c 0.19008,-0.17202 0.3456,-0.45926 0.3456,-0.63831 0,-0.17905 0.12758,-0.43142 0.2835,-0.56082 0.40561,-0.33663 0.34975,-1.20436 -0.10398,-1.61497 -0.33285,-0.30122 -0.4708,-0.31917 -0.97896,-0.12735 -0.55086,0.20792 -0.725642,0.15134 -2.541882,-0.82287 -1.64983,-0.88497 -1.95035,-1.1167 -1.95035,-1.50398 0,-0.28178 -0.18465,-0.57883 -0.48019,-0.77248 -0.64373,-0.42177 -1.33376,-0.1109 -1.70011,0.76591 -0.14896,0.35646 -0.35713,0.70147 -0.46265,0.76668 -0.29255,0.1808 -0.22867,0.97738 0.10512,1.31119 0.32055,0.32054 1.31488,0.40494 1.48715,0.12622 0.15801,-0.25568 4.07408,1.91157 4.07432,2.25482 0,0.94868 1.209042,1.46158 1.922432,0.81596 z m 60.14477,0.0641 c 0.52995,-0.3875 0.31088,-0.9797 -0.3624,-0.9797 -0.62463,0 -0.85848,0.47984 -0.46493,0.95402 0.28041,0.33789 0.39548,0.34147 0.82733,0.0257 z m -68.908382,-0.35604 c 0.29888,-0.29887 0.28623,-0.44271 -0.0702,-0.79914 -0.3729,-0.37291 -0.54499,-0.37298 -0.91758,-2.6e-4 -0.22389,0.22389 -0.24873,0.38605 -0.10133,0.66146 0.22016,0.41138 0.74877,0.47839 1.0891,0.13807 z m 21.440582,-0.2253 c 0.14469,-0.1447 0.41814,-0.29353 0.60765,-0.33073 0.18954,-0.0372 0.51721,-0.29904 0.72816,-0.58188 0.51136,-0.68556 0.22202,-1.38662 -0.66684,-1.61566 -0.53979,-0.13908 -0.75508,-0.40381 -1.6354,-2.01084 -0.87895,-1.60449 -0.98637,-1.91086 -0.80758,-2.30324 0.43399,-0.95256 -0.65115,-2.00943 -1.46792,-1.42966 -0.1658,0.1177 -0.57769,0.33842 -0.91527,0.49048 -0.84209,0.37931 -1.14567,1.07379 -0.74006,1.69284 0.17082,0.26071 0.52936,0.49387 0.81108,0.52746 0.41989,0.05 0.67477,0.36261 1.51312,1.85558 0.76127,1.35563 0.9793,1.91112 0.89027,2.26786 -0.27365,1.09631 0.0425,1.70089 0.88935,1.70089 0.29167,0 0.64873,-0.11839 0.79344,-0.2631 z m 28.71143,-0.23866 c 0.19009,-0.17202 0.3456,-0.4067 0.3456,-0.5215 0,-0.1148 0.17009,-0.31496 0.37799,-0.44478 0.25953,-0.16209 0.37796,-0.44073 0.37796,-0.88926 0,-0.76623 -0.41187,-1.06943 -1.35913,-1.00049 -0.8871,0.0645 -3.91265,-2.16337 -3.92458,-2.88994 -0.01,-0.59511 -0.34489,-1.0444 -0.9025,-1.20995 -0.3175,-0.0943 -0.54323,0.006 -0.91106,0.40614 -0.26896,0.2923 -0.65308,0.70453 -0.8536,0.91608 -0.81748,0.86237 -0.16155,2.13555 0.98235,1.90677 0.5336,-0.10672 0.79937,0.0287 2.36182,1.20307 1.23142,0.92559 1.72761,1.40918 1.65096,1.60897 -0.0603,0.1571 0.0293,0.4976 0.199,0.75665 0.36322,0.55436 1.13586,0.62822 1.65519,0.15824 z m 13.15212,-0.0538 c 0.18049,-0.0977 0.55958,-0.22623 0.84243,-0.28571 1.1065,-0.23268 1.15978,-1.63766 0.0792,-2.08915 -0.556,-0.23231 -0.69674,-0.46254 -1.33562,-2.18488 -0.59511,-1.60439 -0.67938,-2.00142 -0.50571,-2.3826 0.28889,-0.63404 0.26096,-1.01323 -0.10436,-1.41691 -0.36207,-0.40007 -0.86155,-0.44099 -1.4478,-0.11862 -0.22703,0.12485 -0.58251,0.25507 -0.78991,0.28938 -1.08211,0.17899 -1.24871,1.60329 -0.2371,2.02698 0.54719,0.22918 0.70013,0.48079 1.40165,2.30598 0.68685,1.78706 0.75322,2.08684 0.51971,2.34709 -0.82854,0.92341 0.43166,2.12845 1.57748,1.50844 z m 12.5179,-0.76737 c 0.20788,-0.20788 0.37796,-0.48802 0.37796,-0.62252 0,-0.15522 0.79721,-0.43898 2.18262,-0.77688 2.01457,-0.49134 2.2085,-0.50889 2.51897,-0.22792 0.43138,0.39039 0.94121,0.3873 1.3784,-0.008 0.3763,-0.34054 0.46788,-1.29024 0.14374,-1.49058 -0.11103,-0.0686 -0.15594,-0.24446 -0.0998,-0.39077 0.17343,-0.45195 -0.22827,-1.19117 -0.71348,-1.31295 -0.57477,-0.14426 -1.22059,0.18607 -1.42915,0.73099 -0.12979,0.33913 -0.53984,0.51025 -2.27399,0.949 -1.93764,0.49023 -2.14345,0.51011 -2.44608,0.23624 -0.89536,-0.81029 -2.25762,0.22127 -1.68043,1.27249 0.12467,0.22707 0.20435,0.59882 0.17705,0.82611 -0.0599,0.49875 0.58509,1.19314 1.10822,1.19314 0.20789,0 0.54807,-0.17009 0.75596,-0.37798 z m -85.854392,-1.10122 c 0.27987,-0.48763 0.49522,-0.57102 2.46692,-0.95528 1.87756,-0.36592 2.18874,-0.38506 2.37765,-0.14628 0.11957,0.1511 0.40733,0.33113 0.63947,0.40005 0.59746,0.17739 1.46736,-0.69412 1.27662,-1.27898 -0.0743,-0.22801 -0.17669,-0.73022 -0.22741,-1.11603 -0.11454,-0.87159 -0.4195,-1.13678 -1.21838,-1.05957 -0.44098,0.0426 -0.69022,0.19779 -0.85548,0.53261 -0.20592,0.41718 -0.48075,0.52042 -2.3481,0.88214 l -2.11489,0.40967 -0.54803,-0.40517 c -0.50665,-0.37458 -0.58653,-0.38363 -1.05799,-0.11987 -0.52692,0.29479 -0.73673,0.9146 -0.49681,1.46759 0.0756,0.17434 0.11793,0.51518 0.0939,0.75742 -0.1107,1.11772 1.45206,1.60824 2.0125,0.6317 z m 35.974682,-0.52102 c 0.3357,-0.40452 -0.003,-0.9291 -0.59813,-0.9291 -0.46272,0 -0.67768,0.43139 -0.47637,0.95599 0.13915,0.3626 0.76422,0.34696 1.0745,-0.0269 z m -12.13381,-0.21551 c 0.24067,-0.43003 -0.0658,-0.99707 -0.5388,-0.99707 -0.47752,0 -0.78166,0.54891 -0.54703,0.98731 0.22905,0.42799 0.84866,0.43356 1.08583,0.01 z m 24.22902,-0.72943 c 0.33573,-0.40452 -0.003,-0.92909 -0.59811,-0.92909 -0.4627,0 -0.67768,0.43138 -0.47636,0.95598 0.13912,0.3626 0.76423,0.34696 1.07447,-0.0269 z m 16.49718,-0.92909 c 0.22981,-0.59889 -0.31991,-1.14861 -0.91878,-0.91879 -0.28514,0.10941 -0.39226,0.84151 -0.1575,1.07627 0.23476,0.23477 0.96687,0.12764 1.07628,-0.15748 z m 22.88022,-2.09237 c 0.16333,-0.16334 0.29568,-0.35469 0.29409,-0.42523 -0.0166,-0.73644 -1.18591,-0.78643 -1.28932,-0.0551 -0.0991,0.70109 0.49009,0.98548 0.99523,0.48035 z"
       id="path1386-8"
       clip-path="url(#clipPath1456)" />
    <rect
       style="fill:#669933;fill-opacity:0;fill-rule:evenodd;stroke:#669933;stroke-width:0.2;stroke-opacity:1"
       id="rect1444"
       width="101.48661"
       height="101.4866"
       x="77.01265"
       y="103.47098"
       clip-path="url(#clipPath1452)" />
  </g>
</svg>
