<?xml version="1.0" encoding="UTF-8" standalone="no"?>
<svg
   xmlns:dc="http://purl.org/dc/elements/1.1/"
   xmlns:cc="http://creativecommons.org/ns#"
   xmlns:rdf="http://www.w3.org/1999/02/22-rdf-syntax-ns#"
   xmlns:svg="http://www.w3.org/2000/svg"
   xmlns="http://www.w3.org/2000/svg"
   xmlns:sodipodi="http://sodipodi.sourceforge.net/DTD/sodipodi-0.dtd"
   xmlns:inkscape="http://www.inkscape.org/namespaces/inkscape"
   width="26.213511mm"
   height="23.696341mm"
   viewBox="0 0 26.213511 23.69634"
   version="1.1"
   id="svg913"
   sodipodi:docname="iconDogWhite.svg"
   inkscape:version="1.0.1 (3bc2e813f5, 2020-09-07)">
  <defs
     id="defs907">
    <clipPath
       clipPathUnits="userSpaceOnUse"
       id="clipPath898-4">
      <rect
         transform="rotate(90)"
         style="opacity:0.648;fill:#266089;fill-opacity:1;stroke:none;stroke-width:0.952351;stroke-miterlimit:4;stroke-dasharray:none"
         id="rect900-0"
         width="27.633224"
         height="31.345148"
         x="78.247826"
         y="375.23172" />
    </clipPath>
  </defs>
  <sodipodi:namedview
     id="base"
     pagecolor="#ffffff"
     bordercolor="#666666"
     borderopacity="1.0"
     inkscape:pageopacity="0.0"
     inkscape:pageshadow="2"
     inkscape:zoom="1.979899"
     inkscape:cx="46.3926"
     inkscape:cy="61.633045"
     inkscape:document-units="mm"
     inkscape:current-layer="layer1"
     inkscape:document-rotation="0"
     showgrid="false"
     inkscape:window-width="1680"
     inkscape:window-height="987"
     inkscape:window-x="-8"
     inkscape:window-y="-8"
     inkscape:window-maximized="1"
     inkscape:pagecheckerboard="true" />
  <metadata
     id="metadata910">
    <rdf:RDF>
      <cc:Work
         rdf:about="">
        <dc:format>image/svg+xml</dc:format>
        <dc:type
           rdf:resource="http://purl.org/dc/dcmitype/StillImage" />
        <dc:title></dc:title>
      </cc:Work>
    </rdf:RDF>
  </metadata>
  <g
     inkscape:label="Слой 1"
     inkscape:groupmode="layer"
     id="layer1"
     transform="translate(-81.528386,-135.33082)">
    <path
       style="opacity:1;fill:#f9f9f9;fill-opacity:1;fill-rule:evenodd;stroke:none;stroke-width:0.22045;stroke-miterlimit:4;stroke-dasharray:none;stroke-opacity:1"
       d="m 81.937797,158.01598 c -0.66551,-1.59277 -0.53126,-2.67888 0.48786,-3.94703 0.765341,-0.95237 0.878211,-1.2866 0.708211,-2.09727 -0.540281,-2.57652 -0.51226,-3.69639 0.124359,-4.97108 l 0.630921,-1.26331 -0.6037,-1.53159 c -0.35459,-0.89966 -0.6037,-2.20098 -0.6037,-3.15396 0,-1.4562 0.10158,-1.72393 0.991579,-2.61393 0.843311,-0.84333 1.194281,-0.99157 2.34757,-0.99157 0.745811,0 1.73286,0.19488 2.193451,0.43306 1.62155,0.83854 2.8361,3.43172 2.05055,4.37822 -0.51544,0.62107 -0.76745,0.55438 -1.65055,-0.43673 -0.88387,-0.992 -2.01245,-1.15713 -2.274101,-0.33272 -0.57009,1.79622 1.97046,2.65252 5.85529,1.97356 3.908081,-0.68303 4.719981,-1.18172 6.771051,-4.15897 2.863842,-4.15703 2.974282,-4.26532 3.838072,-3.76334 0.401,0.23303 1.05452,0.56878 1.45224,0.7461 0.39775,0.17732 0.80537,0.45538 0.9058,0.61791 0.10044,0.16253 0.72649,0.36845 1.39121,0.45761 1.61917,0.21717 1.58403,0.87492 -0.11052,2.06936 -1.49646,1.05479 -1.8882,1.84114 -1.89053,3.79475 -0.003,2.164 -0.49117,3.39492 -2.15175,5.42077 l -1.54883,1.88957 -0.18114,2.56669 c -0.17134,2.42817 -0.14078,2.62492 0.56655,3.64558 0.41121,0.59339 0.66177,1.21783 0.55684,1.38764 -0.22828,0.36937 -2.469372,0.40497 -3.032512,0.0482 -0.52369,-0.33178 -0.88675,-2.30336 -0.90247,-4.90068 l -0.0127,-2.09909 -2.26018,-0.002 c -1.45558,-10e-4 -2.93502,-0.21345 -4.15581,-0.59632 -2.755711,-0.86427 -3.05083,-0.81545 -3.466961,0.57348 -0.28073,0.93695 -0.758909,1.47752 -2.38067,2.69115 -1.116199,0.83529 -2.10468,1.75582 -2.196649,2.04563 -0.092,0.28982 0.107019,0.9918 0.44225,1.55996 0.71996,1.22027 0.586789,1.57153 -0.5959,1.57153 -0.720031,0 -0.946441,-0.17681 -1.295131,-1.01136 z"
       id="path915"
       inkscape:connector-curvature="0"
       inkscape:export-xdpi="96"
       inkscape:export-ydpi="96" />
  </g>
</svg>
