<svg width="26.205mm" height="18.289mm" version="1.1" viewBox="0 0 26.205 18.289" xmlns="http://www.w3.org/2000/svg">
 <g transform="translate(-75.952 -137.25)">
  <path d="m99.655 155.24c-0.64511-0.23534-1.0774-0.86279-2.0953-3.041-0.70538-1.5095-1.482-2.821-1.7257-2.9146-0.24379-0.0935-0.97415 0.12831-1.623 0.49301-1.1456 0.64383-1.5098 1.272-0.86256 1.4877 0.38449 0.12816 0.89865 2.6829 0.66336 3.2961-0.38648 1.0071-5.3558-0.0216-8.4173-1.7424-0.9624-0.54094-2.5944-1.3899-3.6265-1.8866-2.356-1.1337-4.787-2.9938-5.5714-4.2629-0.55798-0.90285-0.56927-1.0364-0.15546-1.8367 0.8506-1.6449 2.7489-2.864 8.1868-5.2575 3.5811-1.5762 6.5274-2.4211 8.0599-2.3111l1.2725 0.0913-0.0815 1.3124c-0.0453 0.72887-0.27217 1.4563-0.51038 1.6362-0.53117 0.40103-0.56001 0.98858-0.0485 0.98858 0.20918 0 1.0012 0.39371 1.7599 0.87491 0.75878 0.4812 1.5137 0.87491 1.6777 0.87491 0.16396 0 0.73819-0.96572 1.2761-2.146 0.53787-1.1803 1.1973-2.2302 1.4654-2.3331 0.26811-0.10288 1.0491-0.18706 1.7355-0.18706 1.4444 0 1.4042-0.50253 0.39428 4.9338l-0.61857 3.3298 0.67188 4.0082c0.36955 2.2045 0.5919 4.2166 0.49414 4.4714-0.19902 0.51864-1.1017 0.56556-2.3212 0.12067zm-17.979-9.875c0.6945-0.37169 0.75615-1.7975 0.10583-2.4478-0.62418-0.62416-1.4659-0.5756-2.1665 0.12499-1.4239 1.4239 0.23863 3.2979 2.0606 2.3228z" fill="#f9f9f9" fill-rule="evenodd"/>
 </g>
</svg>
