<?xml version="1.0" encoding="UTF-8" standalone="no"?>
<svg
   xmlns:dc="http://purl.org/dc/elements/1.1/"
   xmlns:cc="http://creativecommons.org/ns#"
   xmlns:rdf="http://www.w3.org/1999/02/22-rdf-syntax-ns#"
   xmlns:svg="http://www.w3.org/2000/svg"
   xmlns="http://www.w3.org/2000/svg"
   xmlns:sodipodi="http://sodipodi.sourceforge.net/DTD/sodipodi-0.dtd"
   xmlns:inkscape="http://www.inkscape.org/namespaces/inkscape"
   width="22.744822mm"
   height="20.38579mm"
   viewBox="0 0 22.744822 20.38579"
   version="1.1"
   id="svg913"
   sodipodi:docname="iconRabbitWhite.svg"
   inkscape:version="1.0.1 (3bc2e813f5, 2020-09-07)">
  <defs
     id="defs907">
    <clipPath
       clipPathUnits="userSpaceOnUse"
       id="clipPath898-4">
      <rect
         transform="rotate(90)"
         style="opacity:0.648;fill:#266089;fill-opacity:1;stroke:none;stroke-width:0.952351;stroke-miterlimit:4;stroke-dasharray:none"
         id="rect900-0"
         width="27.633224"
         height="31.345148"
         x="78.247826"
         y="375.23172" />
    </clipPath>
  </defs>
  <sodipodi:namedview
     id="base"
     pagecolor="#ffffff"
     bordercolor="#666666"
     borderopacity="1.0"
     inkscape:pageopacity="0.0"
     inkscape:pageshadow="2"
     inkscape:zoom="1.979899"
     inkscape:cx="66.941302"
     inkscape:cy="62.228056"
     inkscape:document-units="mm"
     inkscape:current-layer="layer1"
     inkscape:document-rotation="0"
     showgrid="false"
     inkscape:window-width="1680"
     inkscape:window-height="987"
     inkscape:window-x="-8"
     inkscape:window-y="-8"
     inkscape:window-maximized="1"
     inkscape:pagecheckerboard="true" />
  <metadata
     id="metadata910">
    <rdf:RDF>
      <cc:Work
         rdf:about="">
        <dc:format>image/svg+xml</dc:format>
        <dc:type
           rdf:resource="http://purl.org/dc/dcmitype/StillImage" />
        <dc:title></dc:title>
      </cc:Work>
    </rdf:RDF>
  </metadata>
  <g
     inkscape:label="Слой 1"
     inkscape:groupmode="layer"
     id="layer1"
     transform="translate(-76.091542,-135.17339)">
    <path
       style="opacity:1;fill:#f9f9f9;fill-opacity:1;fill-rule:evenodd;stroke:none;stroke-width:0.22045;stroke-miterlimit:4;stroke-dasharray:none;stroke-opacity:1"
       d="m 83.737943,155.13646 c -1.7607,-0.32167 -2.36879,-0.59177 -3.54013,-1.57245 -0.77782,-0.65124 -1.68462,-1.18407 -2.01509,-1.18407 -0.33867,0 -0.92551,-0.42562 -1.3448,-0.97535 -1.0754,-1.4099 -0.95107,-3.39062 0.13097,-2.08683 0.71972,0.86721 1.07784,0.45703 1.42238,-1.62919 0.90934,-5.50638 4.2895,-7.66951 9.75857,-6.245 2.99947,0.78126 3.10475,0.61982 1.8859,-2.89137 -0.91266,-2.62905 -0.91139,-3.23427 0.005,-2.4049 0.79873,0.72284 1.26207,0.61444 1.0464,-0.24482 -0.10064,-0.401 -0.0621,-0.72909 0.0857,-0.72909 0.40071,0 1.70418,1.47461 2.23637,2.52999 0.25683,0.5093 1.02293,1.2994 1.70246,1.75578 1.3372,0.89806 3.34555,3.33265 3.621774,4.39042 0.33277,1.27423 -0.113854,2.00638 -1.744744,2.86027 -1.19819,0.62734 -1.65547,1.06038 -1.9345,1.83205 -0.20098,0.55578 -0.87463,1.56296 -1.49701,2.23817 -1.32268,1.43492 -1.39705,1.95621 -0.40251,2.82094 0.87746,0.76296 0.96996,1.69529 0.16817,1.69529 -0.30848,0 -0.95197,-0.32908 -1.42997,-0.73129 -0.87109,-0.73295 -3.03088,-1.31016 -4.90239,-1.31016 -1.0564,0 -1.24052,0.29641 -0.54345,0.87491 0.5688,0.47208 0.5579,1.05792 -0.0238,1.28116 -0.25371,0.0974 -0.4834,0.16282 -0.51036,0.14547 -0.027,-0.0174 -1.0057,-0.20632 -2.17492,-0.41993 z m 11.85148,-12.63866 c 0.59031,-0.3741 0.27699,-1.33261 -0.47046,-1.43922 -0.70593,-0.1007 -1.12082,0.52303 -0.83806,1.2599 0.18658,0.48624 0.71083,0.55808 1.30852,0.17932 z"
       id="path911"
       inkscape:connector-curvature="0"
       inkscape:export-xdpi="96"
       inkscape:export-ydpi="96" />
  </g>
</svg>
