<svg width="26.214mm" height="23.696mm" version="1.1" viewBox="0 0 26.214 23.696" xmlns="http://www.w3.org/2000/svg">
 <g transform="translate(-81.528 -135.33)">
  <path d="m81.938 158.02c-0.66551-1.5928-0.53126-2.6789 0.48786-3.947 0.76534-0.95237 0.87821-1.2866 0.70821-2.0973-0.54028-2.5765-0.51226-3.6964 0.12436-4.9711l0.63092-1.2633-0.6037-1.5316c-0.35459-0.89966-0.6037-2.201-0.6037-3.154 0-1.4562 0.10158-1.7239 0.99158-2.6139 0.84331-0.84333 1.1943-0.99157 2.3476-0.99157 0.74581 0 1.7329 0.19488 2.1935 0.43306 1.6216 0.83854 2.8361 3.4317 2.0506 4.3782-0.51544 0.62107-0.76745 0.55438-1.6506-0.43673-0.88387-0.992-2.0124-1.1571-2.2741-0.33272-0.57009 1.7962 1.9705 2.6525 5.8553 1.9736 3.9081-0.68303 4.72-1.1817 6.7711-4.159 2.8638-4.157 2.9743-4.2653 3.8381-3.7633 0.401 0.23303 1.0545 0.56878 1.4522 0.7461 0.39775 0.17732 0.80537 0.45538 0.9058 0.61791 0.10044 0.16253 0.72649 0.36845 1.3912 0.45761 1.6192 0.21717 1.584 0.87492-0.11052 2.0694-1.4965 1.0548-1.8882 1.8411-1.8905 3.7948-3e-3 2.164-0.49117 3.3949-2.1518 5.4208l-1.5488 1.8896-0.18114 2.5667c-0.17134 2.4282-0.14078 2.6249 0.56655 3.6456 0.41121 0.59339 0.66177 1.2178 0.55684 1.3876-0.22828 0.36937-2.4694 0.40497-3.0325 0.0482-0.52369-0.33178-0.88675-2.3034-0.90247-4.9007l-0.0127-2.0991-2.2602-2e-3c-1.4556-1e-3 -2.935-0.21345-4.1558-0.59632-2.7557-0.86427-3.0508-0.81545-3.467 0.57348-0.28073 0.93695-0.75891 1.4775-2.3807 2.6912-1.1162 0.83529-2.1047 1.7558-2.1966 2.0456-0.092 0.28982 0.10702 0.9918 0.44225 1.56 0.71996 1.2203 0.58679 1.5715-0.5959 1.5715-0.72003 0-0.94644-0.17681-1.2951-1.0114z" style="fill-rule:evenodd;fill:#f9f9f9"/>
 </g>
</svg>
