<?xml version="1.0" encoding="UTF-8" standalone="no"?>
<svg
   xmlns:dc="http://purl.org/dc/elements/1.1/"
   xmlns:cc="http://creativecommons.org/ns#"
   xmlns:rdf="http://www.w3.org/1999/02/22-rdf-syntax-ns#"
   xmlns:svg="http://www.w3.org/2000/svg"
   xmlns="http://www.w3.org/2000/svg"
   xmlns:sodipodi="http://sodipodi.sourceforge.net/DTD/sodipodi-0.dtd"
   xmlns:inkscape="http://www.inkscape.org/namespaces/inkscape"
   width="26.205231mm"
   height="18.289268mm"
   viewBox="0 0 26.205231 18.289269"
   version="1.1"
   id="svg913"
   sodipodi:docname="iconFishWhite.svg"
   inkscape:version="1.0.1 (3bc2e813f5, 2020-09-07)">
  <defs
     id="defs907">
    <clipPath
       clipPathUnits="userSpaceOnUse"
       id="clipPath898-4">
      <rect
         transform="rotate(90)"
         style="opacity:0.648;fill:#266089;fill-opacity:1;stroke:none;stroke-width:0.952351;stroke-miterlimit:4;stroke-dasharray:none"
         id="rect900-0"
         width="27.633224"
         height="31.345148"
         x="78.247826"
         y="375.23172" />
    </clipPath>
  </defs>
  <sodipodi:namedview
     id="base"
     pagecolor="#ffffff"
     bordercolor="#666666"
     borderopacity="1.0"
     inkscape:pageopacity="0.0"
     inkscape:pageshadow="2"
     inkscape:zoom="1.979899"
     inkscape:cx="67.470596"
     inkscape:cy="54.364028"
     inkscape:document-units="mm"
     inkscape:current-layer="layer1"
     inkscape:document-rotation="0"
     showgrid="false"
     inkscape:window-width="1680"
     inkscape:window-height="987"
     inkscape:window-x="-8"
     inkscape:window-y="-8"
     inkscape:window-maximized="1"
     inkscape:pagecheckerboard="true" />
  <metadata
     id="metadata910">
    <rdf:RDF>
      <cc:Work
         rdf:about="">
        <dc:format>image/svg+xml</dc:format>
        <dc:type
           rdf:resource="http://purl.org/dc/dcmitype/StillImage" />
        <dc:title></dc:title>
      </cc:Work>
    </rdf:RDF>
  </metadata>
  <g
     inkscape:label="Слой 1"
     inkscape:groupmode="layer"
     id="layer1"
     transform="translate(-75.9515,-137.25408)">
    <path
       style="opacity:1;fill:#f9f9f9;fill-opacity:1;fill-rule:evenodd;stroke:none;stroke-width:0.22045;stroke-miterlimit:4;stroke-dasharray:none;stroke-opacity:1"
       d="m 99.654896,155.23962 c -0.64511,-0.23534 -1.07744,-0.86279 -2.09532,-3.041 -0.70538,-1.50947 -1.481962,-2.82103 -1.725742,-2.91458 -0.24379,-0.0935 -0.97415,0.12831 -1.62304,0.49301 -1.14556,0.64383 -1.50976,1.27201 -0.86256,1.48774 0.384489,0.12816 0.898649,2.68291 0.663359,3.29606 -0.386479,1.00709 -5.35575,-0.0216 -8.417349,-1.74241 -0.962401,-0.54094 -2.594351,-1.38992 -3.62654,-1.88663 -2.355981,-1.13373 -4.787021,-2.99383 -5.571361,-4.26289 -0.55798,-0.90285 -0.56927,-1.03642 -0.15546,-1.83668 0.8506,-1.64486 2.74894,-2.86396 8.186811,-5.25749 3.58111,-1.57625 6.52738,-2.42108 8.05992,-2.31113 l 1.272469,0.0913 -0.0815,1.31236 c -0.0453,0.72887 -0.27217,1.45633 -0.51038,1.63615 -0.53117,0.40103 -0.560011,0.98858 -0.0485,0.98858 0.209181,0 1.00116,0.39371 1.75993,0.87491 0.75878,0.4812 1.513741,0.87491 1.677703,0.87491 0.16396,0 0.73819,-0.96572 1.27609,-2.14604 0.53787,-1.18031 1.19734,-2.23021 1.46544,-2.33309 0.26811,-0.10288 1.049084,-0.18706 1.735544,-0.18706 1.44438,0 1.40421,-0.50253 0.39428,4.93385 l -0.61857,3.32985 0.67188,4.0082 c 0.36955,2.20451 0.5919,4.21665 0.49414,4.47142 -0.19902,0.51864 -1.1017,0.56556 -2.321244,0.12067 z m -17.978573,-9.87497 c 0.6945,-0.37169 0.756151,-1.79749 0.10583,-2.44782 -0.62418,-0.62416 -1.46587,-0.5756 -2.16646,0.12499 -1.42388,1.42389 0.238631,3.29794 2.06063,2.32283 z"
       id="path913"
       inkscape:connector-curvature="0"
       inkscape:export-xdpi="96"
       inkscape:export-ydpi="96" />
  </g>
</svg>
