<svg width="22.745mm" height="20.386mm" version="1.1" viewBox="0 0 22.745 20.386" xmlns="http://www.w3.org/2000/svg">
 <g transform="translate(-76.092 -135.17)">
  <path d="m83.738 155.14c-1.7607-0.32167-2.3688-0.59177-3.5401-1.5724-0.77782-0.65124-1.6846-1.1841-2.0151-1.1841-0.33867 0-0.92551-0.42562-1.3448-0.97535-1.0754-1.4099-0.95107-3.3906 0.13097-2.0868 0.71972 0.86721 1.0778 0.45703 1.4224-1.6292 0.90934-5.5064 4.2895-7.6695 9.7586-6.245 2.9995 0.78126 3.1048 0.61982 1.8859-2.8914-0.91266-2.629-0.91139-3.2343 5e-3 -2.4049 0.79873 0.72284 1.2621 0.61444 1.0464-0.24482-0.10064-0.401-0.0621-0.72909 0.0857-0.72909 0.40071 0 1.7042 1.4746 2.2364 2.53 0.25683 0.5093 1.0229 1.2994 1.7025 1.7558 1.3372 0.89806 3.3456 3.3326 3.6218 4.3904 0.33277 1.2742-0.11385 2.0064-1.7447 2.8603-1.1982 0.62734-1.6555 1.0604-1.9345 1.832-0.20098 0.55578-0.87463 1.563-1.497 2.2382-1.3227 1.4349-1.397 1.9562-0.40251 2.8209 0.87746 0.76296 0.96996 1.6953 0.16817 1.6953-0.30848 0-0.95197-0.32908-1.43-0.73129-0.87109-0.73295-3.0309-1.3102-4.9024-1.3102-1.0564 0-1.2405 0.29641-0.54345 0.87491 0.5688 0.47208 0.5579 1.0579-0.0238 1.2812-0.25371 0.0974-0.4834 0.16282-0.51036 0.14547-0.027-0.0174-1.0057-0.20632-2.1749-0.41993zm11.851-12.639c0.59031-0.3741 0.27699-1.3326-0.47046-1.4392-0.70593-0.1007-1.1208 0.52303-0.83806 1.2599 0.18658 0.48624 0.71083 0.55808 1.3085 0.17932z" fill="#f9f9f9" fill-rule="evenodd"/>
 </g>
</svg>
