<?xml version="1.0" encoding="UTF-8" standalone="no"?>
<svg
   xmlns:dc="http://purl.org/dc/elements/1.1/"
   xmlns:cc="http://creativecommons.org/ns#"
   xmlns:rdf="http://www.w3.org/1999/02/22-rdf-syntax-ns#"
   xmlns:svg="http://www.w3.org/2000/svg"
   xmlns="http://www.w3.org/2000/svg"
   xmlns:sodipodi="http://sodipodi.sourceforge.net/DTD/sodipodi-0.dtd"
   xmlns:inkscape="http://www.inkscape.org/namespaces/inkscape"
   width="21.270288mm"
   height="25.364889mm"
   viewBox="0 0 21.270289 25.364889"
   version="1.1"
   id="svg913"
   sodipodi:docname="iconCatWhite.svg"
   inkscape:version="1.0.1 (3bc2e813f5, 2020-09-07)">
  <defs
     id="defs907">
    <clipPath
       clipPathUnits="userSpaceOnUse"
       id="clipPath898-4">
      <rect
         transform="rotate(90)"
         style="opacity:0.648;fill:#266089;fill-opacity:1;stroke:none;stroke-width:0.952351;stroke-miterlimit:4;stroke-dasharray:none"
         id="rect900-0"
         width="27.633224"
         height="31.345148"
         x="78.247826"
         y="375.23172" />
    </clipPath>
  </defs>
  <sodipodi:namedview
     id="base"
     pagecolor="#ffffff"
     bordercolor="#666666"
     borderopacity="1.0"
     inkscape:pageopacity="0.0"
     inkscape:pageshadow="2"
     inkscape:zoom="1.979899"
     inkscape:cx="61.839684"
     inkscape:cy="74.716447"
     inkscape:document-units="mm"
     inkscape:current-layer="layer1"
     inkscape:document-rotation="0"
     showgrid="false"
     inkscape:window-width="1680"
     inkscape:window-height="987"
     inkscape:window-x="-8"
     inkscape:window-y="-8"
     inkscape:window-maximized="1"
     inkscape:pagecheckerboard="true" />
  <metadata
     id="metadata910">
    <rdf:RDF>
      <cc:Work
         rdf:about="">
        <dc:format>image/svg+xml</dc:format>
        <dc:type
           rdf:resource="http://purl.org/dc/dcmitype/StillImage" />
        <dc:title></dc:title>
      </cc:Work>
    </rdf:RDF>
  </metadata>
  <g
     inkscape:label="Слой 1"
     inkscape:groupmode="layer"
     id="layer1"
     transform="translate(-77.441345,-131.86917)">
    <path
       style="opacity:1;fill:#f9f9f9;fill-opacity:1;fill-rule:evenodd;stroke:none;stroke-width:0.22045;stroke-miterlimit:4;stroke-dasharray:none;stroke-opacity:1"
       d="m 91.448577,157.10188 c -0.8822,-0.12095 -3.27726,-0.15676 -5.32236,-0.0796 -4.02852,0.15204 -4.47341,-0.0331 -2.99182,-1.24489 l 0.72651,-0.59423 -0.54604,-2.04146 c -0.7751,-2.89771 -1.05127,-3.51609 -2.6873,-6.01698 -1.37636,-2.104 -1.47132,-2.37512 -1.73622,-4.95782 -0.19867,-1.93665 -0.44929,-2.96218 -0.86079,-3.5223 -0.57836,-0.78724 -0.81344,-2.85526 -0.32459,-2.85526 0.14075,0 0.41931,0.19685 0.61899,0.43745 0.47963,0.57794 2.04144,0.58366 2.04144,0.007 0,-0.23648 -0.40312,-0.63844 -0.89585,-0.89323 -0.7453,-0.38541 -0.97504,-0.39893 -1.36697,-0.0804 -0.52403,0.42589 -0.54499,0.52398 0.37325,-1.74747 0.49178,-1.21653 0.51784,-1.2346 0.84143,-0.58327 0.29257,0.5889 0.58174,0.68294 2.33484,0.75929 1.94704,0.0848 2.02232,0.0615 2.79678,-0.8662 l 0.79589,-0.95334 0.36692,2.58501 c 0.2689,1.89417 0.28321,2.85789 0.0536,3.60606 -0.25051,0.81623 -0.22063,1.20269 0.14894,1.92664 0.92937,1.8205 1.53434,2.44166 2.56661,2.63532 1.40743,0.26404 3.65604,2.5763 4.83577,4.97268 0.92106,1.87096 0.93615,1.96655 0.78303,4.96646 l -0.1561,3.05878 h 0.93847 c 0.59669,0 1.162342,-0.23898 1.553162,-0.65618 1.61518,-1.72423 1.52387,-4.10808 -0.27141,-7.08468 -0.640792,-1.06246 -1.086402,-2.01046 -0.990202,-2.10665 0.32126,-0.32125 1.759342,0.9927 2.644242,2.41597 0.73208,1.1775 0.89141,1.77041 0.97605,3.63208 0.11494,2.5282 -0.35846,4.06018 -1.48217,4.79646 -0.84743,0.55524 -3.574842,0.78437 -5.764082,0.48423 z m -6.86464,-20.53918 c 0.64281,-0.47002 0.36716,-1.06497 -0.49342,-1.06497 -0.62516,0 -1.68264,0.76154 -1.68264,1.21175 0,0.39226 1.58511,0.28535 2.17606,-0.14678 z"
       id="path917"
       inkscape:connector-curvature="0"
       inkscape:export-xdpi="96"
       inkscape:export-ydpi="96" />
  </g>
</svg>
