<svg width="21.27mm" height="25.365mm" version="1.1" viewBox="0 0 21.27 25.365" xmlns="http://www.w3.org/2000/svg">
 <g transform="translate(-77.441 -131.87)">
  <path d="m91.449 157.1c-0.8822-0.12095-3.2773-0.15676-5.3224-0.0796-4.0285 0.15204-4.4734-0.0331-2.9918-1.2449l0.72651-0.59423-0.54604-2.0415c-0.7751-2.8977-1.0513-3.5161-2.6873-6.017-1.3764-2.104-1.4713-2.3751-1.7362-4.9578-0.19867-1.9366-0.44929-2.9622-0.86079-3.5223-0.57836-0.78724-0.81344-2.8553-0.32459-2.8553 0.14075 0 0.41931 0.19685 0.61899 0.43745 0.47963 0.57794 2.0414 0.58366 2.0414 7e-3 0-0.23648-0.40312-0.63844-0.89585-0.89323-0.7453-0.38541-0.97504-0.39893-1.367-0.0804-0.52403 0.42589-0.54499 0.52398 0.37325-1.7475 0.49178-1.2165 0.51784-1.2346 0.84143-0.58327 0.29257 0.5889 0.58174 0.68294 2.3348 0.75929 1.947 0.0848 2.0223 0.0615 2.7968-0.8662l0.79589-0.95334 0.36692 2.585c0.2689 1.8942 0.28321 2.8579 0.0536 3.6061-0.25051 0.81623-0.22063 1.2027 0.14894 1.9266 0.92937 1.8205 1.5343 2.4417 2.5666 2.6353 1.4074 0.26404 3.656 2.5763 4.8358 4.9727 0.92106 1.871 0.93615 1.9666 0.78303 4.9665l-0.1561 3.0588h0.93847c0.59669 0 1.1623-0.23898 1.5532-0.65618 1.6152-1.7242 1.5239-4.1081-0.27141-7.0847-0.64079-1.0625-1.0864-2.0105-0.9902-2.1066 0.32126-0.32125 1.7593 0.9927 2.6442 2.416 0.73208 1.1775 0.89141 1.7704 0.97605 3.6321 0.11494 2.5282-0.35846 4.0602-1.4822 4.7965-0.84743 0.55524-3.5748 0.78437-5.7641 0.48423zm-6.8646-20.539c0.64281-0.47002 0.36716-1.065-0.49342-1.065-0.62516 0-1.6826 0.76154-1.6826 1.2118 0 0.39226 1.5851 0.28535 2.1761-0.14678z" fill="#f9f9f9" fill-rule="evenodd"/>
 </g>
</svg>
