<svg width="364" height="55" viewBox="0 0 364 55" fill="none" xmlns="http://www.w3.org/2000/svg">
<rect x="29" y="37" width="182" height="13" rx="6.5" fill="#669933"/>
<path d="M14.248 31.28C13.648 31.376 12.988 31.484 12.268 31.604C11.548 31.724 10.9 31.832 10.324 31.928C10.42 31.136 10.516 30.356 10.612 29.588C10.684 28.916 10.744 28.244 10.792 27.572C10.864 26.9 10.924 26.324 10.972 25.844H7.84L6.4 31.028C5.872 31.1 5.248 31.184 4.528 31.28C3.808 31.352 3.136 31.424 2.512 31.496C1.744 31.592 0.988 31.688 0.244 31.784C1.204 28.592 2.152 25.448 3.088 22.352C3.472 21.056 3.868 19.7 4.276 18.284C4.708 16.868 5.128 15.464 5.536 14.072C5.968 12.656 6.376 11.3 6.76 10.004C7.144 8.708 7.48 7.52 7.768 6.44C9.4 6.32 11.056 6.176 12.736 6.008C14.44 5.84 16.096 5.612 17.704 5.324C17.632 6.092 17.548 7.052 17.452 8.204C17.38 9.332 17.308 10.568 17.236 11.912C17.164 13.256 17.092 14.66 17.02 16.124C16.948 17.588 16.876 19.028 16.804 20.444C16.684 23.756 16.552 27.272 16.408 30.992C15.688 31.112 14.968 31.208 14.248 31.28ZM8.704 22.244C8.8 22.244 8.968 22.244 9.208 22.244C9.472 22.22 9.736 22.208 10 22.208C10.288 22.184 10.552 22.172 10.792 22.172C11.032 22.148 11.2 22.124 11.296 22.1C11.296 21.956 11.308 21.716 11.332 21.38C11.38 21.02 11.416 20.624 11.44 20.192C11.488 19.736 11.536 19.244 11.584 18.716C11.632 18.188 11.68 17.672 11.728 17.168C11.824 15.944 11.944 14.624 12.088 13.208L12.304 10.076L11.764 10.112L10.936 13.208L8.704 22.244ZM22.1542 32.18C22.8742 28.724 23.5582 25.376 24.2062 22.136C24.4462 20.744 24.6982 19.304 24.9622 17.816C25.2502 16.328 25.5142 14.864 25.7542 13.424C25.9942 11.96 26.2102 10.568 26.4022 9.248C26.5942 7.904 26.7382 6.692 26.8342 5.612C27.1462 5.636 27.4102 5.648 27.6262 5.648C27.8422 5.648 28.0942 5.648 28.3822 5.648C28.7182 5.648 29.1262 5.648 29.6062 5.648C30.0862 5.624 30.5662 5.6 31.0462 5.576C31.5262 5.552 32.0422 5.528 32.5942 5.504C32.9302 7.184 33.2302 8.804 33.4942 10.364C33.7582 11.732 34.0222 13.136 34.2862 14.576C34.5742 16.016 34.8262 17.24 35.0422 18.248C35.1382 17.768 35.2462 17.216 35.3662 16.592C35.4862 15.944 35.6182 15.272 35.7622 14.576C35.9062 13.88 36.0382 13.184 36.1582 12.488C36.3022 11.768 36.4462 11.06 36.5902 10.364C36.9262 8.804 37.2742 7.196 37.6342 5.54L42.0262 5C41.2102 8.672 40.4902 12.152 39.8662 15.44C39.5782 16.856 39.2902 18.296 39.0022 19.76C38.7382 21.2 38.4862 22.592 38.2462 23.936C38.0062 25.256 37.8022 26.492 37.6342 27.644C37.4662 28.772 37.3342 29.72 37.2382 30.488C37.1662 30.488 36.8782 30.548 36.3742 30.668C35.8942 30.764 35.3302 30.884 34.6822 31.028C34.0582 31.172 33.4222 31.316 32.7742 31.46C32.1502 31.604 31.6822 31.736 31.3702 31.856C31.2262 29.936 31.0702 28.112 30.9022 26.384C30.8302 25.64 30.7462 24.884 30.6502 24.116C30.5782 23.324 30.4942 22.568 30.3982 21.848C30.3022 21.128 30.2062 20.456 30.1102 19.832C30.0142 19.208 29.9182 18.668 29.8222 18.212C29.7502 18.668 29.6542 19.196 29.5342 19.796C29.4142 20.396 29.2942 21.032 29.1742 21.704C29.0542 22.376 28.9342 23.084 28.8142 23.828C28.6942 24.548 28.5622 25.244 28.4182 25.916C28.1062 27.524 27.7702 29.204 27.4102 30.956L22.1542 32.18ZM49.7716 31.28C49.5556 31.28 49.1236 31.316 48.4756 31.388C47.8516 31.436 47.2036 31.508 46.5316 31.604C45.8596 31.676 45.2476 31.748 44.6956 31.82C44.1676 31.892 43.8796 31.94 43.8316 31.964C44.0716 30.932 44.3116 29.792 44.5516 28.544C44.8156 27.272 45.0796 25.952 45.3436 24.584C45.6076 23.192 45.8596 21.788 46.0996 20.372C46.3396 18.956 46.5676 17.588 46.7836 16.268C47.2876 13.196 47.7916 10.04 48.2956 6.8L53.9116 5.9C53.3596 9.116 52.8196 12.272 52.2916 15.368C52.0756 16.688 51.8476 18.056 51.6076 19.472C51.3916 20.888 51.1636 22.292 50.9236 23.684C50.7076 25.076 50.5036 26.432 50.3116 27.752C50.1196 29.048 49.9396 30.224 49.7716 31.28ZM55.2489 31.784C56.3049 28.592 57.3129 25.46 58.2729 22.388C58.6809 21.092 59.1009 19.736 59.5329 18.32C59.9649 16.904 60.3969 15.5 60.8289 14.108C61.2609 12.716 61.6569 11.372 62.0169 10.076C62.4009 8.78 62.7369 7.58 63.0249 6.476C64.3449 6.476 65.5929 6.404 66.7689 6.26C67.9449 6.116 69.2169 5.984 70.5849 5.864C70.5129 6.392 70.4289 6.992 70.3329 7.664C70.2609 8.312 70.1649 8.996 70.0449 9.716C69.9489 10.436 69.8409 11.18 69.7209 11.948C69.6009 12.716 69.4569 13.7 69.2889 14.9C69.1209 16.1 68.8929 17.6 68.6049 19.4H69.0729C69.7689 17.576 70.3449 16.064 70.8009 14.864C71.2569 13.64 71.6289 12.644 71.9169 11.876C72.2049 11.108 72.4929 10.364 72.7809 9.644C73.0929 8.9 73.3809 8.204 73.6449 7.556C73.9329 6.884 74.1969 6.296 74.4369 5.792C75.0369 5.744 75.6009 5.684 76.1289 5.612C76.6569 5.54 77.1849 5.468 77.7129 5.396C78.2409 5.3 78.7689 5.216 79.2969 5.144C79.8489 5.048 80.4489 4.94 81.0969 4.82C80.8569 6.212 80.6289 7.64 80.4129 9.104C80.1969 10.568 80.0049 12.032 79.8369 13.496C79.6689 14.936 79.5009 16.364 79.3329 17.78C79.1889 19.196 79.0569 20.54 78.9369 21.812C78.6489 24.788 78.3969 27.692 78.1809 30.524L71.9169 31.64C71.9169 31.52 71.9289 31.196 71.9529 30.668C72.0009 30.14 72.0489 29.492 72.0969 28.724C72.1689 27.956 72.2529 27.104 72.3489 26.168C72.4689 25.232 72.5769 24.296 72.6729 23.36C72.7929 22.424 72.9129 21.524 73.0329 20.66C73.1529 19.772 73.2729 19.016 73.3929 18.392H73.0689C72.7329 19.4 72.3609 20.468 71.9529 21.596C71.5449 22.7 71.1249 23.828 70.6929 24.98C70.2849 26.132 69.8769 27.26 69.4689 28.364C69.0609 29.468 68.7009 30.524 68.3889 31.532C67.5489 31.556 66.8289 31.592 66.2289 31.64C65.6289 31.664 64.9329 31.7 64.1409 31.748L65.2929 18.392H64.7529C64.7049 18.704 64.5849 19.232 64.3929 19.976C64.2009 20.696 63.9729 21.536 63.7089 22.496C63.4689 23.432 63.2049 24.416 62.9169 25.448C62.6289 26.456 62.3529 27.404 62.0889 28.292C61.8489 29.156 61.6449 29.876 61.4769 30.452C61.3089 31.004 61.2129 31.316 61.1889 31.388L55.2489 31.784ZM97.266 31.28C96.666 31.376 96.006 31.484 95.286 31.604C94.566 31.724 93.918 31.832 93.342 31.928C93.438 31.136 93.534 30.356 93.63 29.588C93.702 28.916 93.762 28.244 93.81 27.572C93.882 26.9 93.942 26.324 93.99 25.844H90.858L89.418 31.028C88.89 31.1 88.266 31.184 87.546 31.28C86.826 31.352 86.154 31.424 85.53 31.496C84.762 31.592 84.006 31.688 83.262 31.784C84.222 28.592 85.17 25.448 86.106 22.352C86.49 21.056 86.886 19.7 87.294 18.284C87.726 16.868 88.146 15.464 88.554 14.072C88.986 12.656 89.394 11.3 89.778 10.004C90.162 8.708 90.498 7.52 90.786 6.44C92.418 6.32 94.074 6.176 95.754 6.008C97.458 5.84 99.114 5.612 100.722 5.324C100.65 6.092 100.566 7.052 100.47 8.204C100.398 9.332 100.326 10.568 100.254 11.912C100.182 13.256 100.11 14.66 100.038 16.124C99.966 17.588 99.894 19.028 99.822 20.444C99.702 23.756 99.57 27.272 99.426 30.992C98.706 31.112 97.986 31.208 97.266 31.28ZM91.722 22.244C91.818 22.244 91.986 22.244 92.226 22.244C92.49 22.22 92.754 22.208 93.018 22.208C93.306 22.184 93.57 22.172 93.81 22.172C94.05 22.148 94.218 22.124 94.314 22.1C94.314 21.956 94.326 21.716 94.35 21.38C94.398 21.02 94.434 20.624 94.458 20.192C94.506 19.736 94.554 19.244 94.602 18.716C94.65 18.188 94.698 17.672 94.746 17.168C94.842 15.944 94.962 14.624 95.106 13.208L95.322 10.076L94.782 10.112L93.954 13.208L91.722 22.244ZM114.928 30.848C114.184 30.848 113.392 30.872 112.552 30.92C111.736 30.968 110.908 31.04 110.068 31.136C109.228 31.232 108.4 31.364 107.584 31.532C106.792 31.676 106.072 31.856 105.424 32.072C105.568 30.992 105.736 29.792 105.928 28.472C106.12 27.152 106.336 25.784 106.576 24.368C106.84 22.952 107.092 21.524 107.332 20.084C107.596 18.644 107.86 17.264 108.124 15.944C108.724 12.8 109.36 9.596 110.032 6.332L116.332 5.504C115.684 8.288 115.06 11 114.46 13.64C114.196 14.768 113.932 15.944 113.668 17.168C113.404 18.368 113.152 19.544 112.912 20.696C112.672 21.848 112.456 22.964 112.264 24.044C112.072 25.124 111.916 26.084 111.796 26.924C112.396 26.876 113.032 26.852 113.704 26.852C114.4 26.828 115.012 26.816 115.54 26.816C115.564 27.272 115.6 27.728 115.648 28.184C115.696 28.616 115.744 29.012 115.792 29.372C115.864 29.732 115.912 30.056 115.936 30.344C115.984 30.608 116.02 30.788 116.044 30.884C115.852 30.884 115.66 30.884 115.468 30.884C115.3 30.86 115.12 30.848 114.928 30.848ZM137.203 23.108C137.203 24.452 136.939 25.676 136.411 26.78C135.907 27.86 135.211 28.796 134.323 29.588C133.459 30.38 132.427 30.992 131.227 31.424C130.051 31.856 128.779 32.072 127.411 32.072C126.451 32.072 125.491 31.82 124.531 31.316C123.571 30.788 122.647 29.96 121.759 28.832L124.423 23.612C124.591 23.924 124.843 24.248 125.179 24.584C125.515 24.896 125.887 25.172 126.295 25.412C126.727 25.652 127.147 25.856 127.555 26.024C127.987 26.168 128.371 26.24 128.707 26.24C128.995 26.24 129.295 26.192 129.607 26.096C129.919 26 130.207 25.856 130.471 25.664C130.735 25.472 130.939 25.256 131.083 25.016C131.251 24.752 131.335 24.452 131.335 24.116C131.335 23.54 131.143 23.012 130.759 22.532C130.399 22.028 129.943 21.56 129.391 21.128C128.839 20.672 128.239 20.216 127.591 19.76C126.943 19.304 126.343 18.824 125.791 18.32C125.263 17.816 124.807 17.252 124.423 16.628C124.039 16.004 123.847 15.308 123.847 14.54C123.847 13.292 124.219 12.128 124.963 11.048C125.707 9.968 126.631 9.044 127.735 8.276C128.863 7.484 130.087 6.86 131.407 6.404C132.727 5.948 133.975 5.72 135.151 5.72C135.799 5.72 136.411 5.804 136.987 5.972C137.563 6.116 138.055 6.368 138.463 6.728C138.895 7.064 139.231 7.496 139.471 8.024C139.735 8.552 139.867 9.212 139.867 10.004C139.867 10.34 139.831 10.676 139.759 11.012C139.711 11.348 139.663 11.708 139.615 12.092L134.395 13.604C134.443 13.412 134.479 13.22 134.503 13.028C134.551 12.836 134.575 12.644 134.575 12.452C134.575 11.732 134.443 11.216 134.179 10.904C133.939 10.568 133.615 10.4 133.207 10.4C133.015 10.4 132.775 10.472 132.487 10.616C132.223 10.76 131.947 10.952 131.659 11.192C131.395 11.408 131.167 11.672 130.975 11.984C130.783 12.296 130.687 12.632 130.687 12.992C130.687 13.568 130.843 14.048 131.155 14.432C131.491 14.816 131.899 15.176 132.379 15.512C132.859 15.848 133.375 16.196 133.927 16.556C134.503 16.892 135.031 17.336 135.511 17.888C135.991 18.44 136.387 19.136 136.699 19.976C137.035 20.792 137.203 21.836 137.203 23.108ZM157.496 24.26C156.92 25.58 156.272 26.732 155.552 27.716C154.856 28.676 154.112 29.492 153.32 30.164C152.552 30.812 151.772 31.292 150.98 31.604C150.188 31.916 149.42 32.072 148.676 32.072C147.932 32.072 147.248 31.904 146.624 31.568C146.024 31.232 145.496 30.728 145.04 30.056C144.584 29.384 144.212 28.556 143.924 27.572C143.66 26.588 143.528 25.436 143.528 24.116C143.528 21.86 143.84 19.64 144.464 17.456C145.088 15.248 145.964 13.268 147.092 11.516C148.22 9.764 149.552 8.36 151.088 7.304C152.648 6.224 154.364 5.684 156.236 5.684C156.812 5.684 157.364 5.804 157.892 6.044C158.42 6.284 158.876 6.62 159.26 7.052C159.644 7.484 159.944 8.012 160.16 8.636C160.4 9.26 160.52 9.956 160.52 10.724C160.52 10.868 160.52 11.024 160.52 11.192C160.52 11.336 160.508 11.492 160.484 11.66L155.768 12.92C155.48 12.32 155.144 12.02 154.76 12.02C154.376 12.02 153.968 12.248 153.536 12.704C153.128 13.136 152.72 13.712 152.312 14.432C151.904 15.128 151.508 15.92 151.124 16.808C150.74 17.672 150.404 18.548 150.116 19.436C149.828 20.324 149.588 21.176 149.396 21.992C149.228 22.784 149.144 23.432 149.144 23.936C149.144 24.704 149.24 25.244 149.432 25.556C149.648 25.868 149.924 26.024 150.26 26.024C150.524 26.024 150.824 25.928 151.16 25.736C151.496 25.52 151.808 25.256 152.096 24.944C152.384 24.608 152.648 24.236 152.888 23.828C153.128 23.42 153.296 23.012 153.392 22.604L157.496 24.26ZM175.678 31.28C175.078 31.376 174.418 31.484 173.698 31.604C172.978 31.724 172.33 31.832 171.754 31.928C171.85 31.136 171.946 30.356 172.042 29.588C172.114 28.916 172.174 28.244 172.222 27.572C172.294 26.9 172.354 26.324 172.402 25.844H169.27L167.83 31.028C167.302 31.1 166.678 31.184 165.958 31.28C165.238 31.352 164.566 31.424 163.942 31.496C163.174 31.592 162.418 31.688 161.674 31.784C162.634 28.592 163.582 25.448 164.518 22.352C164.902 21.056 165.298 19.7 165.706 18.284C166.138 16.868 166.558 15.464 166.966 14.072C167.398 12.656 167.806 11.3 168.19 10.004C168.574 8.708 168.91 7.52 169.198 6.44C170.83 6.32 172.486 6.176 174.166 6.008C175.87 5.84 177.526 5.612 179.134 5.324C179.062 6.092 178.978 7.052 178.882 8.204C178.81 9.332 178.738 10.568 178.666 11.912C178.594 13.256 178.522 14.66 178.45 16.124C178.378 17.588 178.306 19.028 178.234 20.444C178.114 23.756 177.982 27.272 177.838 30.992C177.118 31.112 176.398 31.208 175.678 31.28ZM170.134 22.244C170.23 22.244 170.398 22.244 170.638 22.244C170.902 22.22 171.166 22.208 171.43 22.208C171.718 22.184 171.982 22.172 172.222 22.172C172.462 22.148 172.63 22.124 172.726 22.1C172.726 21.956 172.738 21.716 172.762 21.38C172.81 21.02 172.846 20.624 172.87 20.192C172.918 19.736 172.966 19.244 173.014 18.716C173.062 18.188 173.11 17.672 173.158 17.168C173.254 15.944 173.374 14.624 173.518 13.208L173.734 10.076L173.194 10.112L172.366 13.208L170.134 22.244ZM193.341 30.848C192.597 30.848 191.805 30.872 190.965 30.92C190.149 30.968 189.321 31.04 188.481 31.136C187.641 31.232 186.813 31.364 185.997 31.532C185.205 31.676 184.485 31.856 183.837 32.072C183.981 30.992 184.149 29.792 184.341 28.472C184.533 27.152 184.749 25.784 184.989 24.368C185.253 22.952 185.505 21.524 185.745 20.084C186.009 18.644 186.273 17.264 186.537 15.944C187.137 12.8 187.773 9.596 188.445 6.332L194.745 5.504C194.097 8.288 193.473 11 192.873 13.64C192.609 14.768 192.345 15.944 192.081 17.168C191.817 18.368 191.565 19.544 191.325 20.696C191.085 21.848 190.869 22.964 190.677 24.044C190.485 25.124 190.329 26.084 190.209 26.924C190.809 26.876 191.445 26.852 192.117 26.852C192.813 26.828 193.425 26.816 193.953 26.816C193.977 27.272 194.013 27.728 194.061 28.184C194.109 28.616 194.157 29.012 194.205 29.372C194.277 29.732 194.325 30.056 194.349 30.344C194.397 30.608 194.433 30.788 194.457 30.884C194.265 30.884 194.073 30.884 193.881 30.884C193.713 30.86 193.533 30.848 193.341 30.848ZM209.604 30.848C208.86 30.848 208.068 30.872 207.228 30.92C206.412 30.968 205.584 31.04 204.744 31.136C203.904 31.232 203.076 31.364 202.26 31.532C201.468 31.676 200.748 31.856 200.1 32.072C200.244 30.992 200.412 29.792 200.604 28.472C200.796 27.152 201.012 25.784 201.252 24.368C201.516 22.952 201.768 21.524 202.008 20.084C202.272 18.644 202.536 17.264 202.8 15.944C203.4 12.8 204.036 9.596 204.708 6.332L211.008 5.504C210.36 8.288 209.736 11 209.136 13.64C208.872 14.768 208.608 15.944 208.344 17.168C208.08 18.368 207.828 19.544 207.588 20.696C207.348 21.848 207.132 22.964 206.94 24.044C206.748 25.124 206.592 26.084 206.472 26.924C207.072 26.876 207.708 26.852 208.38 26.852C209.076 26.828 209.688 26.816 210.216 26.816C210.24 27.272 210.276 27.728 210.324 28.184C210.372 28.616 210.42 29.012 210.468 29.372C210.54 29.732 210.588 30.056 210.612 30.344C210.66 30.608 210.696 30.788 210.72 30.884C210.528 30.884 210.336 30.884 210.144 30.884C209.976 30.86 209.796 30.848 209.604 30.848Z" fill="#FBF9F9"/>
<g filter="url(#filter0_d)">
<path d="M38.6954 47H37.6504C37.3351 47 37.1774 46.846 37.1774 46.538V43.645C37.1774 43.2197 37.0747 42.8897 36.8694 42.655C36.6641 42.4203 36.3634 42.303 35.9674 42.303C35.6667 42.303 35.4357 42.3507 35.2744 42.446C35.1204 42.534 35.0031 42.6147 34.9224 42.688C34.8417 42.754 34.7757 42.82 34.7244 42.886C34.6364 43.0033 34.5631 43.1243 34.5044 43.249V46.263H35.0874C35.1827 46.263 35.2304 46.307 35.2304 46.395V46.868C35.2304 46.956 35.1827 47 35.0874 47H32.9864C32.8911 47 32.8434 46.956 32.8434 46.868V46.395C32.8434 46.307 32.8911 46.263 32.9864 46.263H33.5914V39.839H32.9864C32.8911 39.839 32.8434 39.795 32.8434 39.707V39.234C32.8434 39.146 32.8911 39.102 32.9864 39.102H34.3724C34.4604 39.102 34.5044 39.146 34.5044 39.234V41.687C34.5044 41.929 34.4897 42.1527 34.4604 42.358H34.4824C34.8417 41.7933 35.4137 41.511 36.1984 41.511C36.7851 41.511 37.2434 41.6833 37.5734 42.028C37.9034 42.3727 38.0721 42.8383 38.0794 43.425V46.263H38.6954C38.7907 46.263 38.8384 46.307 38.8384 46.395V46.868C38.8384 46.956 38.7907 47 38.6954 47ZM45.9304 44.404H41.9704C41.9997 45.0127 42.1904 45.482 42.5424 45.812C42.9017 46.142 43.3051 46.307 43.7524 46.307C44.1997 46.307 44.5811 46.2117 44.8964 46.021C45.2191 45.8303 45.4354 45.6433 45.5454 45.46C45.6041 45.3867 45.6701 45.3757 45.7434 45.427L46.0404 45.724C46.0844 45.768 46.1064 45.8083 46.1064 45.845C46.1064 45.8743 46.0881 45.9147 46.0514 45.966C46.0221 46.0173 45.9561 46.098 45.8534 46.208C45.7507 46.318 45.6041 46.4427 45.4134 46.582C45.2301 46.7213 44.9881 46.8387 44.6874 46.934C44.3941 47.0293 44.0787 47.077 43.7414 47.077C42.9714 47.077 42.3261 46.824 41.8054 46.318C41.2921 45.812 41.0354 45.1337 41.0354 44.283C41.0354 43.425 41.2921 42.7503 41.8054 42.259C42.3187 41.7603 42.9457 41.511 43.6864 41.511C44.4344 41.511 45.0211 41.753 45.4464 42.237C45.8717 42.7137 46.0844 43.359 46.0844 44.173C46.0844 44.2023 46.0844 44.2317 46.0844 44.261C46.0844 44.3563 46.0331 44.404 45.9304 44.404ZM45.1714 43.733C45.1494 43.2783 45.0064 42.9153 44.7424 42.644C44.4784 42.3727 44.1264 42.237 43.6864 42.237C43.2464 42.237 42.8687 42.3617 42.5534 42.611C42.2381 42.8603 42.0511 43.2343 41.9924 43.733H45.1714ZM50.7839 47H48.6829C48.5875 47 48.5399 46.956 48.5399 46.868V46.395C48.5399 46.307 48.5875 46.263 48.6829 46.263H49.2879V39.839H48.6829C48.5875 39.839 48.5399 39.795 48.5399 39.707V39.234C48.5399 39.146 48.5875 39.102 48.6829 39.102H49.9039C50.1019 39.102 50.2009 39.1937 50.2009 39.377V46.263H50.7839C50.8792 46.263 50.9269 46.307 50.9269 46.395V46.868C50.9269 46.956 50.8792 47 50.7839 47ZM55.7665 49.475H53.5555C53.4602 49.475 53.4125 49.431 53.4125 49.343V48.87C53.4125 48.782 53.4602 48.738 53.5555 48.738H54.1715V42.325H53.5775C53.4822 42.325 53.4345 42.281 53.4345 42.193V41.72C53.4345 41.632 53.4822 41.588 53.5775 41.588H54.8645C54.9599 41.588 55.0075 41.632 55.0075 41.72L54.9965 42.589H55.0075C55.1469 42.2883 55.3705 42.0353 55.6785 41.83C55.9939 41.6173 56.3789 41.511 56.8335 41.511C57.5742 41.511 58.1719 41.764 58.6265 42.27C59.0812 42.7687 59.3085 43.436 59.3085 44.272C59.3085 45.1007 59.0849 45.7753 58.6375 46.296C58.1902 46.8167 57.5925 47.077 56.8445 47.077C56.3899 47.077 56.0085 46.9743 55.7005 46.769C55.3999 46.5563 55.1835 46.2997 55.0515 45.999H55.0185C55.0405 46.2337 55.0515 46.4023 55.0515 46.505V48.738H55.7665C55.8619 48.738 55.9095 48.782 55.9095 48.87V49.343C55.9095 49.431 55.8619 49.475 55.7665 49.475ZM55.0295 44.316C55.0295 44.954 55.1945 45.4453 55.5245 45.79C55.8619 46.1347 56.2652 46.307 56.7345 46.307C57.2112 46.307 57.6072 46.1237 57.9225 45.757C58.2452 45.383 58.4065 44.8953 58.4065 44.294C58.4065 43.6853 58.2452 43.1977 57.9225 42.831C57.6072 42.4643 57.2112 42.281 56.7345 42.281C56.2579 42.281 55.8545 42.4607 55.5245 42.82C55.1945 43.1793 55.0295 43.678 55.0295 44.316ZM70.5809 46.439C70.6102 46.4683 70.6249 46.5013 70.6249 46.538C70.6249 46.5673 70.6029 46.604 70.5589 46.648C70.2362 46.934 69.8292 47.077 69.3379 47.077C68.8539 47.077 68.4542 46.9193 68.1389 46.604C67.8309 46.2813 67.6769 45.8157 67.6769 45.207V42.325H67.0609C66.9582 42.325 66.9069 42.2773 66.9069 42.182V41.731C66.9069 41.6357 66.9582 41.588 67.0609 41.588H67.6769V40.477C67.6769 40.3743 67.7282 40.323 67.8309 40.323H68.4469C68.5422 40.323 68.5899 40.3743 68.5899 40.477V41.588H69.9869C70.0895 41.588 70.1409 41.6357 70.1409 41.731V42.182C70.1409 42.2773 70.0895 42.325 69.9869 42.325H68.5899V45.185C68.5899 45.5517 68.6705 45.8303 68.8319 46.021C69.0005 46.2043 69.2205 46.296 69.4919 46.296C69.7705 46.296 69.9795 46.2263 70.1189 46.087C70.1922 46.021 70.2582 46.0247 70.3169 46.098L70.5809 46.439ZM77.3147 46.307C76.8013 46.8203 76.145 47.077 75.3457 47.077C74.5463 47.077 73.89 46.824 73.3767 46.318C72.8633 45.8047 72.6067 45.1263 72.6067 44.283C72.6067 43.4323 72.867 42.7577 73.3877 42.259C73.9083 41.7603 74.561 41.511 75.3457 41.511C76.1377 41.511 76.7903 41.764 77.3037 42.27C77.8243 42.7687 78.0847 43.4397 78.0847 44.283C78.0847 45.119 77.828 45.7937 77.3147 46.307ZM73.5307 44.283C73.5307 44.8843 73.7067 45.372 74.0587 45.746C74.4107 46.12 74.8397 46.307 75.3457 46.307C75.859 46.307 76.2917 46.12 76.6437 45.746C76.9957 45.372 77.1717 44.8843 77.1717 44.283C77.1717 43.6817 76.992 43.1977 76.6327 42.831C76.2807 42.4643 75.8553 42.281 75.3567 42.281C74.858 42.281 74.429 42.4643 74.0697 42.831C73.7103 43.1977 73.5307 43.6817 73.5307 44.283ZM88.3331 47H85.8471C85.7517 47 85.7041 46.956 85.7041 46.868V46.395C85.7041 46.307 85.7517 46.263 85.8471 46.263H86.4521V42.325H85.8251C85.7297 42.325 85.6821 42.281 85.6821 42.193V41.72C85.6821 41.632 85.7297 41.588 85.8251 41.588H86.4521V40.906C86.4521 40.2973 86.6061 39.8353 86.9141 39.52C87.2294 39.1973 87.6657 39.036 88.2231 39.036C88.6337 39.036 89.0041 39.1827 89.3341 39.476C89.4074 39.542 89.4184 39.6043 89.3671 39.663L89.1031 40.004C89.0371 40.07 88.9747 40.0773 88.9161 40.026C88.7401 39.8867 88.5201 39.817 88.2561 39.817C87.9921 39.817 87.7757 39.9123 87.6071 40.103C87.4457 40.2863 87.3651 40.5577 87.3651 40.917V41.588H91.3031C91.3911 41.588 91.4351 41.632 91.4351 41.72V46.263H92.0181C92.1134 46.263 92.1611 46.307 92.1611 46.395V46.868C92.1611 46.956 92.1134 47 92.0181 47H89.9171C89.8217 47 89.7741 46.956 89.7741 46.868V46.395C89.7741 46.307 89.8217 46.263 89.9171 46.263H90.5221V42.325H87.3651V46.263H88.3331C88.4211 46.263 88.4651 46.307 88.4651 46.395V46.868C88.4651 46.956 88.4211 47 88.3331 47ZM91.3911 39.96C91.5157 40.0847 91.5781 40.2313 91.5781 40.4C91.5781 40.5687 91.5157 40.7117 91.3911 40.829C91.2737 40.9463 91.1307 41.005 90.9621 41.005C90.7934 41.005 90.6467 40.9463 90.5221 40.829C90.4047 40.7117 90.3461 40.5687 90.3461 40.4C90.3461 40.2313 90.4047 40.0847 90.5221 39.96C90.6467 39.8353 90.7934 39.773 90.9621 39.773C91.1307 39.773 91.2737 39.8353 91.3911 39.96ZM100.499 47H99.4545C99.1392 47 98.9815 46.846 98.9815 46.538V43.645C98.9815 43.2197 98.8788 42.8897 98.6735 42.655C98.4682 42.4203 98.1675 42.303 97.7715 42.303C97.2068 42.303 96.7668 42.534 96.4515 42.996C96.4148 43.04 96.3672 43.1207 96.3085 43.238V46.263H96.8915C96.9868 46.263 97.0345 46.307 97.0345 46.395V46.868C97.0345 46.956 96.9868 47 96.8915 47H94.7905C94.6952 47 94.6475 46.956 94.6475 46.868V46.395C94.6475 46.307 94.6952 46.263 94.7905 46.263H95.3955V42.325H94.7905C94.6952 42.325 94.6475 42.281 94.6475 42.193V41.72C94.6475 41.632 94.6952 41.588 94.7905 41.588H96.0775C96.1728 41.588 96.2205 41.632 96.2205 41.72L96.1985 42.468H96.2315C96.6128 41.83 97.2032 41.511 98.0025 41.511C98.5892 41.511 99.0475 41.6833 99.3775 42.028C99.7075 42.3727 99.8762 42.8383 99.8835 43.425V46.263H100.499C100.595 46.263 100.642 46.307 100.642 46.395V46.868C100.642 46.956 100.595 47 100.499 47ZM108.603 47H107.646C107.478 47 107.353 46.967 107.272 46.901C107.199 46.8277 107.162 46.7067 107.162 46.538V45.922H107.151C107.034 46.23 106.814 46.5013 106.491 46.736C106.169 46.9633 105.776 47.077 105.314 47.077C104.581 47.077 103.983 46.8203 103.521 46.307C103.067 45.7937 102.839 45.1227 102.839 44.294C102.839 43.458 103.067 42.787 103.521 42.281C103.983 41.7677 104.585 41.511 105.325 41.511C105.78 41.511 106.158 41.6173 106.458 41.83C106.759 42.0353 106.975 42.2883 107.107 42.589H107.118C107.111 42.4423 107.107 42.3213 107.107 42.226V39.839H106.491C106.396 39.839 106.348 39.795 106.348 39.707V39.234C106.348 39.146 106.396 39.102 106.491 39.102H107.855C107.943 39.102 107.987 39.146 107.987 39.234V46.263H108.603C108.691 46.263 108.735 46.307 108.735 46.395V46.868C108.735 46.956 108.691 47 108.603 47ZM103.741 44.272C103.741 44.8807 103.899 45.372 104.214 45.746C104.537 46.12 104.944 46.307 105.435 46.307C105.927 46.307 106.33 46.1237 106.645 45.757C106.961 45.383 107.118 44.888 107.118 44.272C107.118 43.656 106.957 43.172 106.634 42.82C106.312 42.4607 105.912 42.281 105.435 42.281C104.959 42.281 104.555 42.4607 104.225 42.82C103.903 43.1793 103.741 43.6633 103.741 44.272ZM121.724 47H120.767C120.452 47 120.294 46.846 120.294 46.538V45.977H120.272C119.737 46.7177 119.022 47.088 118.127 47.088C117.599 47.088 117.166 46.9523 116.829 46.681C116.492 46.4023 116.323 46.0283 116.323 45.559C116.323 44.9577 116.583 44.5177 117.104 44.239C117.632 43.953 118.354 43.81 119.271 43.81H120.195V43.678C120.195 42.7613 119.718 42.303 118.765 42.303C118.318 42.303 117.995 42.347 117.797 42.435C117.599 42.5157 117.456 42.5817 117.368 42.633C117.287 42.6843 117.225 42.7247 117.181 42.754C117.071 42.842 116.99 42.8493 116.939 42.776L116.631 42.391C116.58 42.3323 116.587 42.2737 116.653 42.215C116.778 42.0537 117.034 41.896 117.423 41.742C117.812 41.588 118.27 41.511 118.798 41.511C120.338 41.511 121.108 42.2443 121.108 43.711V46.263H121.724C121.812 46.263 121.856 46.307 121.856 46.395V46.868C121.856 46.956 121.812 47 121.724 47ZM120.195 44.47H119.326C118.901 44.47 118.549 44.492 118.27 44.536C117.991 44.58 117.753 44.6753 117.555 44.822C117.364 44.9687 117.269 45.1703 117.269 45.427C117.269 45.6837 117.372 45.8963 117.577 46.065C117.79 46.2263 118.065 46.307 118.402 46.307C119.113 46.307 119.711 45.9917 120.195 45.361V44.47ZM130.184 47H129.139C128.824 47 128.666 46.846 128.666 46.538V43.645C128.666 43.2197 128.564 42.8897 128.358 42.655C128.153 42.4203 127.852 42.303 127.456 42.303C126.892 42.303 126.452 42.534 126.136 42.996C126.1 43.04 126.052 43.1207 125.993 43.238V46.263H126.576C126.672 46.263 126.719 46.307 126.719 46.395V46.868C126.719 46.956 126.672 47 126.576 47H124.475C124.38 47 124.332 46.956 124.332 46.868V46.395C124.332 46.307 124.38 46.263 124.475 46.263H125.08V42.325H124.475C124.38 42.325 124.332 42.281 124.332 42.193V41.72C124.332 41.632 124.38 41.588 124.475 41.588H125.762C125.858 41.588 125.905 41.632 125.905 41.72L125.883 42.468H125.916C126.298 41.83 126.888 41.511 127.687 41.511C128.274 41.511 128.732 41.6833 129.062 42.028C129.392 42.3727 129.561 42.8383 129.568 43.425V46.263H130.184C130.28 46.263 130.327 46.307 130.327 46.395V46.868C130.327 46.956 130.28 47 130.184 47ZM134.994 47H132.893C132.798 47 132.75 46.956 132.75 46.868V46.395C132.75 46.307 132.798 46.263 132.893 46.263H133.498V42.325H132.893C132.798 42.325 132.75 42.281 132.75 42.193V41.72C132.75 41.632 132.798 41.588 132.893 41.588H134.279C134.367 41.588 134.411 41.632 134.411 41.72V46.263H134.994C135.089 46.263 135.137 46.307 135.137 46.395V46.868C135.137 46.956 135.089 47 134.994 47ZM134.367 39.96C134.492 40.0847 134.554 40.2313 134.554 40.4C134.554 40.5687 134.492 40.7117 134.367 40.829C134.25 40.9463 134.107 41.005 133.938 41.005C133.769 41.005 133.623 40.9463 133.498 40.829C133.381 40.7117 133.322 40.5687 133.322 40.4C133.322 40.2313 133.381 40.0847 133.498 39.96C133.623 39.8353 133.769 39.773 133.938 39.773C134.107 39.773 134.25 39.8353 134.367 39.96ZM146.885 47H145.84C145.671 47 145.546 46.967 145.466 46.901C145.392 46.8277 145.356 46.7067 145.356 46.538V43.645C145.356 43.2197 145.253 42.8897 145.048 42.655C144.85 42.4203 144.553 42.303 144.157 42.303C143.577 42.303 143.123 42.556 142.793 43.062C142.837 43.194 142.859 43.3407 142.859 43.502V46.263H143.475C143.563 46.263 143.607 46.307 143.607 46.395V46.868C143.607 46.956 143.563 47 143.475 47H141.374C141.278 47 141.231 46.956 141.231 46.868V46.395C141.231 46.307 141.278 46.263 141.374 46.263H141.957V43.645C141.957 43.2197 141.854 42.8897 141.649 42.655C141.443 42.4203 141.143 42.303 140.747 42.303C140.446 42.303 140.215 42.3507 140.054 42.446C139.9 42.534 139.782 42.6147 139.702 42.688C139.621 42.754 139.555 42.82 139.504 42.886C139.416 43.0033 139.342 43.1243 139.284 43.249V46.263H139.823C139.911 46.263 139.955 46.307 139.955 46.395V46.868C139.955 46.956 139.911 47 139.823 47H137.766C137.67 47 137.623 46.956 137.623 46.868V46.395C137.623 46.307 137.67 46.263 137.766 46.263H138.371V42.325H137.766C137.67 42.325 137.623 42.281 137.623 42.193V41.72C137.623 41.632 137.67 41.588 137.766 41.588H138.844C138.968 41.588 139.056 41.6137 139.108 41.665C139.166 41.709 139.196 41.7933 139.196 41.918L139.174 42.468H139.207C139.588 41.83 140.178 41.511 140.978 41.511C141.784 41.511 142.334 41.8153 142.628 42.424C143.046 41.8153 143.636 41.511 144.399 41.511C144.985 41.511 145.44 41.6833 145.763 42.028C146.093 42.3727 146.258 42.8383 146.258 43.425L146.269 46.263H146.885C146.98 46.263 147.028 46.307 147.028 46.395V46.868C147.028 46.956 146.98 47 146.885 47ZM154.804 47H153.847C153.531 47 153.374 46.846 153.374 46.538V45.977H153.352C152.816 46.7177 152.101 47.088 151.207 47.088C150.679 47.088 150.246 46.9523 149.909 46.681C149.571 46.4023 149.403 46.0283 149.403 45.559C149.403 44.9577 149.663 44.5177 150.184 44.239C150.712 43.953 151.434 43.81 152.351 43.81H153.275V43.678C153.275 42.7613 152.798 42.303 151.845 42.303C151.397 42.303 151.075 42.347 150.877 42.435C150.679 42.5157 150.536 42.5817 150.448 42.633C150.367 42.6843 150.305 42.7247 150.261 42.754C150.151 42.842 150.07 42.8493 150.019 42.776L149.711 42.391C149.659 42.3323 149.667 42.2737 149.733 42.215C149.857 42.0537 150.114 41.896 150.503 41.742C150.891 41.588 151.35 41.511 151.878 41.511C153.418 41.511 154.188 42.2443 154.188 43.711V46.263H154.804C154.892 46.263 154.936 46.307 154.936 46.395V46.868C154.936 46.956 154.892 47 154.804 47ZM153.275 44.47H152.406C151.98 44.47 151.628 44.492 151.35 44.536C151.071 44.58 150.833 44.6753 150.635 44.822C150.444 44.9687 150.349 45.1703 150.349 45.427C150.349 45.6837 150.451 45.8963 150.657 46.065C150.869 46.2263 151.144 46.307 151.482 46.307C152.193 46.307 152.791 45.9917 153.275 45.361V44.47ZM159.613 47H157.512C157.417 47 157.369 46.956 157.369 46.868V46.395C157.369 46.307 157.417 46.263 157.512 46.263H158.117V39.839H157.512C157.417 39.839 157.369 39.795 157.369 39.707V39.234C157.369 39.146 157.417 39.102 157.512 39.102H158.733C158.931 39.102 159.03 39.1937 159.03 39.377V46.263H159.613C159.708 46.263 159.756 46.307 159.756 46.395V46.868C159.756 46.956 159.708 47 159.613 47ZM164.684 47.077C164.192 47.077 163.8 46.9853 163.507 46.802C163.213 46.6187 163.03 46.4463 162.957 46.285H162.935C162.949 46.6443 162.957 46.835 162.957 46.857C162.957 46.9523 162.905 47 162.803 47H162.429C162.333 47 162.286 46.9523 162.286 46.857V45.207C162.286 45.1117 162.333 45.064 162.429 45.064H162.858C162.96 45.064 163.012 45.1117 163.012 45.207V45.427C163.085 45.647 163.239 45.8487 163.474 46.032C163.752 46.252 164.101 46.362 164.519 46.362C165.34 46.362 165.751 46.076 165.751 45.504C165.751 45.306 165.637 45.1483 165.41 45.031C165.182 44.9063 164.904 44.8037 164.574 44.723C164.251 44.6423 163.928 44.5507 163.606 44.448C163.283 44.3453 163.008 44.1803 162.781 43.953C162.553 43.7183 162.44 43.425 162.44 43.073C162.44 42.5963 162.612 42.2187 162.957 41.94C163.301 41.654 163.741 41.511 164.277 41.511C165.003 41.511 165.523 41.7237 165.839 42.149H165.861C165.846 41.885 165.839 41.7493 165.839 41.742C165.839 41.6467 165.886 41.599 165.982 41.599H166.334C166.429 41.599 166.477 41.6467 166.477 41.742V43.271C166.477 43.3663 166.429 43.414 166.334 43.414H165.905C165.802 43.414 165.751 43.3663 165.751 43.271V43.117C165.751 42.919 165.633 42.7247 165.399 42.534C165.171 42.336 164.874 42.237 164.508 42.237C164.141 42.237 163.855 42.314 163.65 42.468C163.444 42.622 163.342 42.8237 163.342 43.073C163.342 43.315 163.455 43.5057 163.683 43.645C163.917 43.777 164.2 43.8833 164.53 43.964C164.86 44.0373 165.19 44.1217 165.52 44.217C165.85 44.3123 166.128 44.47 166.356 44.69C166.59 44.91 166.708 45.2143 166.708 45.603C166.708 45.9917 166.539 46.3363 166.202 46.637C165.872 46.9303 165.366 47.077 164.684 47.077ZM180.191 47H179.146C178.831 47 178.673 46.846 178.673 46.538V43.645C178.673 43.2197 178.571 42.8897 178.365 42.655C178.16 42.4203 177.859 42.303 177.463 42.303C177.163 42.303 176.932 42.3507 176.77 42.446C176.616 42.534 176.499 42.6147 176.418 42.688C176.338 42.754 176.272 42.82 176.22 42.886C176.132 43.0033 176.059 43.1243 176 43.249V46.263H176.583C176.679 46.263 176.726 46.307 176.726 46.395V46.868C176.726 46.956 176.679 47 176.583 47H174.482C174.387 47 174.339 46.956 174.339 46.868V46.395C174.339 46.307 174.387 46.263 174.482 46.263H175.087V39.839H174.482C174.387 39.839 174.339 39.795 174.339 39.707V39.234C174.339 39.146 174.387 39.102 174.482 39.102H175.868C175.956 39.102 176 39.146 176 39.234V41.687C176 41.929 175.986 42.1527 175.956 42.358H175.978C176.338 41.7933 176.91 41.511 177.694 41.511C178.281 41.511 178.739 41.6833 179.069 42.028C179.399 42.3727 179.568 42.8383 179.575 43.425V46.263H180.191C180.287 46.263 180.334 46.307 180.334 46.395V46.868C180.334 46.956 180.287 47 180.191 47ZM187.239 46.307C186.726 46.8203 186.07 47.077 185.27 47.077C184.471 47.077 183.815 46.824 183.301 46.318C182.788 45.8047 182.531 45.1263 182.531 44.283C182.531 43.4323 182.792 42.7577 183.312 42.259C183.833 41.7603 184.486 41.511 185.27 41.511C186.062 41.511 186.715 41.764 187.228 42.27C187.749 42.7687 188.009 43.4397 188.009 44.283C188.009 45.119 187.753 45.7937 187.239 46.307ZM183.455 44.283C183.455 44.8843 183.631 45.372 183.983 45.746C184.335 46.12 184.764 46.307 185.27 46.307C185.784 46.307 186.216 46.12 186.568 45.746C186.92 45.372 187.096 44.8843 187.096 44.283C187.096 43.6817 186.917 43.1977 186.557 42.831C186.205 42.4643 185.78 42.281 185.281 42.281C184.783 42.281 184.354 42.4643 183.994 42.831C183.635 43.1977 183.455 43.6817 183.455 44.283ZM199.738 47H198.693C198.525 47 198.4 46.967 198.319 46.901C198.246 46.8277 198.209 46.7067 198.209 46.538V43.645C198.209 43.2197 198.107 42.8897 197.901 42.655C197.703 42.4203 197.406 42.303 197.01 42.303C196.431 42.303 195.976 42.556 195.646 43.062C195.69 43.194 195.712 43.3407 195.712 43.502V46.263H196.328C196.416 46.263 196.46 46.307 196.46 46.395V46.868C196.46 46.956 196.416 47 196.328 47H194.227C194.132 47 194.084 46.956 194.084 46.868V46.395C194.084 46.307 194.132 46.263 194.227 46.263H194.81V43.645C194.81 43.2197 194.708 42.8897 194.502 42.655C194.297 42.4203 193.996 42.303 193.6 42.303C193.3 42.303 193.069 42.3507 192.907 42.446C192.753 42.534 192.636 42.6147 192.555 42.688C192.475 42.754 192.409 42.82 192.357 42.886C192.269 43.0033 192.196 43.1243 192.137 43.249V46.263H192.676C192.764 46.263 192.808 46.307 192.808 46.395V46.868C192.808 46.956 192.764 47 192.676 47H190.619C190.524 47 190.476 46.956 190.476 46.868V46.395C190.476 46.307 190.524 46.263 190.619 46.263H191.224V42.325H190.619C190.524 42.325 190.476 42.281 190.476 42.193V41.72C190.476 41.632 190.524 41.588 190.619 41.588H191.697C191.822 41.588 191.91 41.6137 191.961 41.665C192.02 41.709 192.049 41.7933 192.049 41.918L192.027 42.468H192.06C192.442 41.83 193.032 41.511 193.831 41.511C194.638 41.511 195.188 41.8153 195.481 42.424C195.899 41.8153 196.49 41.511 197.252 41.511C197.839 41.511 198.294 41.6833 198.616 42.028C198.946 42.3727 199.111 42.8383 199.111 43.425L199.122 46.263H199.738C199.834 46.263 199.881 46.307 199.881 46.395V46.868C199.881 46.956 199.834 47 199.738 47ZM206.969 44.404H203.009C203.038 45.0127 203.229 45.482 203.581 45.812C203.94 46.142 204.343 46.307 204.791 46.307C205.238 46.307 205.619 46.2117 205.935 46.021C206.257 45.8303 206.474 45.6433 206.584 45.46C206.642 45.3867 206.708 45.3757 206.782 45.427L207.079 45.724C207.123 45.768 207.145 45.8083 207.145 45.845C207.145 45.8743 207.126 45.9147 207.09 45.966C207.06 46.0173 206.994 46.098 206.892 46.208C206.789 46.318 206.642 46.4427 206.452 46.582C206.268 46.7213 206.026 46.8387 205.726 46.934C205.432 47.0293 205.117 47.077 204.78 47.077C204.01 47.077 203.364 46.824 202.844 46.318C202.33 45.812 202.074 45.1337 202.074 44.283C202.074 43.425 202.33 42.7503 202.844 42.259C203.357 41.7603 203.984 41.511 204.725 41.511C205.473 41.511 206.059 41.753 206.485 42.237C206.91 42.7137 207.123 43.359 207.123 44.173C207.123 44.2023 207.123 44.2317 207.123 44.261C207.123 44.3563 207.071 44.404 206.969 44.404ZM206.21 43.733C206.188 43.2783 206.045 42.9153 205.781 42.644C205.517 42.3727 205.165 42.237 204.725 42.237C204.285 42.237 203.907 42.3617 203.592 42.611C203.276 42.8603 203.089 43.2343 203.031 43.733H206.21Z" fill="#FBF9F9"/>
</g>
<defs>
<filter id="filter0_d" x="29.8434" y="36.0359" width="182.301" height="18.439" filterUnits="userSpaceOnUse" color-interpolation-filters="sRGB">
<feFlood flood-opacity="0" result="BackgroundImageFix"/>
<feColorMatrix in="SourceAlpha" type="matrix" values="0 0 0 0 0 0 0 0 0 0 0 0 0 0 0 0 0 0 127 0"/>
<feOffset dx="1" dy="1"/>
<feGaussianBlur stdDeviation="2"/>
<feColorMatrix type="matrix" values="0 0 0 0 0 0 0 0 0 0 0 0 0 0 0 0 0 0 0.4 0"/>
<feBlend mode="normal" in2="BackgroundImageFix" result="effect1_dropShadow"/>
<feBlend mode="normal" in="SourceGraphic" in2="effect1_dropShadow" result="shape"/>
</filter>
</defs>
</svg>
